<svg width="608" height="400" viewBox="0 0 608 400" fill="none" xmlns="http://www.w3.org/2000/svg">
<g clip-path="url(#clip0_2842_9415)">
<path d="M211.053 174.657C211.753 178.339 212.593 181.983 213.573 185.59C213.679 186.009 213.797 186.421 213.916 186.84H227.537C228.697 186.842 229.81 187.303 230.63 188.123C231.45 188.944 231.912 190.056 231.913 191.216V230.047C232.326 230.816 232.744 231.579 233.163 232.341C235.326 236.28 237.576 240.174 239.877 244.018C277.387 306.501 329.704 358.787 392.208 396.262L388.507 387.91C389.864 387.817 391.226 387.723 392.583 387.629C422.119 385.61 451.755 383.372 480.597 376.734C510.771 369.789 540.288 357.743 563.936 337.771C587.59 317.793 604.93 289.263 607.337 258.396C608.139 247.787 607.066 237.12 604.167 226.884C598.623 207.181 586.508 189.453 569.03 178.964C541.576 162.493 505.764 165.849 476.822 179.552C447.886 193.248 424.332 215.92 401.334 238.199C424.554 198.381 456.882 164.636 495.668 139.733C508.521 131.506 522.16 124.18 533.087 113.522C544.008 102.87 552.065 87.9366 550.133 72.8029C547.939 55.6376 533.881 42.6105 519.797 32.5651C514.171 28.5519 508.364 24.7451 502.376 21.2445C485.479 11.3429 467.201 3.87292 447.898 1.10372C421.75 -2.65315 393.508 3.04779 373.461 20.2506C350.876 39.635 341.612 70.8963 342.493 100.801C328.579 80.5729 307.119 65.0891 282.884 64.4328C257.723 63.7577 233.807 79.654 221.205 101.445C208.609 123.23 206.346 149.934 211.053 174.657Z" fill="#E6E6E6"/>
<path d="M370.241 258.668C355.504 257.37 341.891 255.854 327.611 251.813C313.769 247.896 300.45 241.339 290.596 230.633C279.998 219.118 274.276 204.163 270.24 189.276C267.989 180.976 266.14 172.559 264.395 164.14C262.502 155.006 260.82 145.83 259.349 136.615C256.421 118.271 254.33 99.8196 253.077 81.2599C252.926 79.007 252.787 76.7533 252.661 74.4989C252.583 73.1082 254.746 73.1126 254.824 74.4989C255.853 92.7935 257.704 111.017 260.378 129.169C263.016 147.003 266.392 164.76 270.675 182.274C274.303 197.112 279.001 212.181 288.306 224.533C297.032 236.115 309.636 243.684 323.245 248.21C337.092 252.815 351.693 254.654 366.164 256.021C367.939 256.188 368.465 256.348 370.241 256.505C371.616 256.626 371.629 258.79 370.241 258.668L370.241 258.668Z" fill="white"/>
<path d="M602.919 228.48C584.327 229.511 565.923 232.754 548.097 238.14C530.264 243.516 513.127 250.975 497.041 260.364C481.498 269.443 467.069 280.308 454.047 292.735C441.409 304.804 430.145 318.234 420.462 332.781C410.735 347.364 402.673 362.992 396.429 379.371C395.668 381.376 394.934 383.391 394.229 385.416C393.773 386.722 391.683 386.16 392.143 384.841C397.985 368.116 405.686 352.099 415.102 337.092C424.516 322.083 435.565 308.164 448.045 295.59C460.726 282.821 474.838 271.559 490.102 262.027C522.152 242.063 558.48 229.985 596.104 226.787C598.373 226.596 600.645 226.44 602.919 226.317C604.31 226.241 604.306 228.404 602.919 228.48Z" fill="white"/>
<path d="M501.791 23.7799C489.903 27.5607 478.635 33.0671 468.348 40.1227C457.835 47.3815 448.248 55.8958 439.798 65.4769C430.893 75.5559 422.977 86.4662 416.157 98.0579C408.923 110.297 402.639 123.073 397.36 136.274C391.924 149.826 387.352 163.71 383.671 177.84C379.93 192.138 377.007 206.638 374.918 221.269C372.839 235.745 371.582 250.327 371.15 264.944C370.716 278.922 371.129 292.914 372.388 306.842C373.539 319.836 375.641 332.728 378.678 345.414C381.375 356.872 385.176 368.042 390.027 378.767C391.151 381.202 392.343 383.602 393.604 385.969C394.258 387.197 392.392 388.291 391.736 387.061C386.375 376.816 382.094 366.042 378.963 354.912C375.45 342.522 372.903 329.878 371.346 317.094C369.62 303.224 368.779 289.258 368.829 275.281C368.86 260.597 369.734 245.928 371.447 231.344C373.16 216.579 375.704 201.921 379.067 187.442C382.421 172.939 386.676 158.659 391.807 144.685C396.752 131.158 402.673 118.008 409.523 105.338C416.048 93.2483 423.651 81.7725 432.24 71.0508C440.398 60.8421 449.711 51.6132 459.993 43.5486C469.907 35.7956 480.863 29.4759 492.539 24.7752C495.392 23.6396 498.284 22.6126 501.216 21.6943C502.547 21.2756 503.117 23.3629 501.791 23.7799H501.791Z" fill="white"/>
<path d="M373.498 400C288.053 400 218.785 397.201 218.785 393.749C218.785 390.297 288.053 387.498 373.498 387.498C458.944 387.498 528.211 390.297 528.211 393.749C528.211 397.201 458.944 400 373.498 400Z" fill="#E6E6E6"/>
<path d="M236.808 197.96C236.885 198.298 236.935 198.641 236.958 198.986L263.811 214.477L270.338 210.72L277.296 219.829L263.333 229.781L232.698 205.613C231.448 206.075 230.088 206.146 228.797 205.816C227.506 205.486 226.346 204.771 225.472 203.766C224.597 202.761 224.049 201.514 223.901 200.19C223.752 198.866 224.011 197.528 224.641 196.355C225.272 195.181 226.244 194.227 227.43 193.62C228.616 193.012 229.959 192.781 231.279 192.955C232.6 193.129 233.837 193.701 234.824 194.596C235.812 195.49 236.504 196.663 236.808 197.96Z" fill="#FFB8B8"/>
<path d="M297.963 207.465L276.82 222.534L267.363 210.678L287.917 194.186C288.801 193.476 289.821 192.955 290.913 192.653C292.006 192.352 293.149 192.276 294.272 192.432C295.395 192.588 296.475 192.971 297.444 193.558C298.414 194.146 299.254 194.925 299.912 195.848C301.194 197.647 301.709 199.881 301.343 202.06C300.978 204.238 299.762 206.183 297.963 207.465Z" fill="#64D8CB"/>
<path d="M341.609 379.41L334.196 381.352L323.175 353.683L334.116 350.815L341.609 379.41Z" fill="#FFB8B8"/>
<path d="M321.702 391.982L345.001 385.877L342.642 376.876L328.345 380.622C325.958 381.247 323.917 382.796 322.671 384.926C321.425 387.057 321.077 389.595 321.702 391.982Z" fill="#2F2E41"/>
<path d="M275.709 384.688L268.164 383.341L269.772 353.6L280.906 355.589L275.709 384.688Z" fill="#FFB8B8"/>
<path d="M252.363 387.747L276.074 391.982L277.71 382.822L263.16 380.223C261.957 380.008 260.724 380.032 259.53 380.294C258.337 380.556 257.206 381.05 256.204 381.749C255.201 382.447 254.346 383.337 253.687 384.366C253.028 385.395 252.578 386.544 252.363 387.747Z" fill="#2F2E41"/>
<path d="M290.564 165.97C288.705 166.422 287.193 168.317 286.284 170.511C285.447 172.816 284.879 175.211 284.594 177.646C283.88 182.183 283.195 187.093 284.671 191.295C286.401 196.219 291.011 198.798 295.01 197.586C299.008 196.374 302.188 191.824 303.275 186.588C304.264 181.296 303.627 175.829 301.447 170.907C300.311 168.321 298.745 165.936 296.665 164.769C295.644 164.152 294.428 163.944 293.26 164.187C292.092 164.43 291.06 165.107 290.371 166.08" fill="#2F2E41"/>
<path d="M280.045 248.1L265.683 376.742L277.545 381.247L299.424 294.983L329.884 373.857L342.868 374.578C342.868 374.578 325.053 251.851 311.85 249.062L280.045 248.1Z" fill="#2F2E41"/>
<path d="M292.11 182.387C283.63 182.387 276.757 175.513 276.757 167.034C276.757 158.555 283.63 151.681 292.11 151.681C300.589 151.681 307.463 158.555 307.463 167.034C307.463 175.513 300.589 182.387 292.11 182.387Z" fill="#FFB8B8"/>
<path d="M285.52 188.828L302.111 186.664C302.111 186.664 312.932 199.648 312.21 222.011C311.489 244.373 314.014 251.226 314.014 251.226L279.42 251.851C284.421 244.975 263.504 205.483 285.52 188.828Z" fill="#64D8CB"/>
<path d="M276.607 254.976C276.953 254.979 277.299 255.009 277.64 255.065L298.865 232.47L296.701 225.257L307.161 220.568L313.653 236.438L283.116 260.729C283.28 262.051 283.038 263.392 282.421 264.573C281.805 265.754 280.844 266.719 279.665 267.341C278.487 267.962 277.147 268.21 275.824 268.052C274.501 267.893 273.258 267.335 272.26 266.453C271.262 265.571 270.556 264.406 270.236 263.112C269.916 261.819 269.997 260.459 270.469 259.213C270.941 257.967 271.781 256.894 272.878 256.138C273.974 255.381 275.275 254.976 276.607 254.976Z" fill="#FFB8B8"/>
<path d="M299.855 197.619L309.686 221.65L295.98 228.142L284.629 204.36C284.141 203.337 283.866 202.225 283.823 201.092C283.78 199.959 283.968 198.829 284.376 197.772C284.785 196.714 285.405 195.751 286.199 194.941C286.992 194.132 287.943 193.493 288.992 193.064C290.005 192.65 291.089 192.439 292.182 192.444C293.276 192.448 294.358 192.669 295.367 193.092C296.376 193.515 297.291 194.132 298.061 194.909C298.831 195.686 299.441 196.607 299.855 197.619Z" fill="#64D8CB"/>
<path d="M296.125 180.992C293.72 179.604 293.463 176.256 293.79 173.498C294.117 170.74 294.663 167.666 293.042 165.411C291.107 162.719 287.22 162.666 283.906 162.578C280.593 162.49 276.558 161.52 275.699 158.318C275.132 156.203 276.345 153.933 278.087 152.605C279.829 151.277 282.008 150.69 284.126 150.132C288.864 148.884 293.756 147.625 298.607 148.311C303.412 148.991 307.757 151.535 310.7 155.393C313.644 159.251 314.95 164.113 314.336 168.927C313.551 175.085 312.412 177.774 313.16 180.489C314.552 185.546 320.555 188.795 320.675 194.039C320.769 198.141 317.145 201.305 313.61 203.388C310.806 205.04 307.78 206.442 304.549 206.829C301.317 207.215 297.838 206.475 295.431 204.285C292.327 201.46 291.559 196.741 292.449 192.639C293.339 188.537 295.623 184.894 297.882 181.356" fill="#2F2E41"/>
<path d="M5.62599 185.59H227.537C229.029 185.592 230.458 186.186 231.513 187.24C232.567 188.295 233.161 189.725 233.163 191.216V333.739C233.161 335.231 232.567 336.66 231.513 337.715C230.458 338.769 229.029 339.363 227.537 339.365H5.62599C4.13458 339.363 2.70493 338.769 1.65034 337.715C0.595764 336.66 0.00231934 335.231 6.10352e-05 333.739V191.216C0.00231934 189.725 0.595764 188.295 1.65034 187.24C2.70493 186.186 4.13458 185.592 5.62599 185.59ZM1.25027 333.739C1.25156 334.899 1.71297 336.012 2.53329 336.832C3.35361 337.652 4.46587 338.114 5.62599 338.115H227.537C228.697 338.114 229.81 337.652 230.63 336.832C231.45 336.012 231.912 334.899 231.913 333.739V191.216C231.912 190.056 231.45 188.944 230.63 188.123C229.81 187.303 228.697 186.842 227.537 186.84H5.62599C4.46587 186.842 3.35361 187.303 2.53329 188.123C1.71297 188.944 1.25156 190.056 1.25027 191.216V333.739Z" fill="#3F3D56"/>
<path d="M180.17 256.536H215.176C216.585 256.535 217.935 255.974 218.931 254.978C219.927 253.982 220.488 252.632 220.489 251.223V216.217C220.488 214.809 219.927 213.458 218.931 212.462C217.935 211.466 216.585 210.906 215.176 210.904H180.17C178.761 210.906 177.411 211.466 176.415 212.462C175.419 213.458 174.858 214.809 174.857 216.217V251.223C174.858 252.632 175.419 253.982 176.415 254.978C177.411 255.974 178.761 256.535 180.17 256.536Z" fill="#64D8CB"/>
<path d="M17.1837 293.736H215.966C217.044 293.736 218.077 293.308 218.839 292.546C219.601 291.784 220.029 290.75 220.029 289.673C220.029 288.595 219.601 287.561 218.839 286.799C218.077 286.037 217.044 285.609 215.966 285.609H17.1837C16.1061 285.609 15.0726 286.037 14.3106 286.799C13.5486 287.561 13.1205 288.595 13.1205 289.673C13.1205 290.75 13.5486 291.784 14.3106 292.546C15.0726 293.308 16.1061 293.736 17.1837 293.736Z" fill="#CCCCCC"/>
<path d="M17.05 274.045H215.832C216.91 274.045 217.943 273.617 218.705 272.855C219.467 272.093 219.896 271.059 219.896 269.982C219.896 268.904 219.467 267.871 218.705 267.109C217.943 266.347 216.91 265.919 215.832 265.919H17.05C15.9723 265.919 14.9389 266.347 14.1769 267.109C13.4149 267.871 12.9868 268.904 12.9868 269.982C12.9868 271.059 13.4149 272.093 14.1769 272.855C14.9389 273.617 15.9723 274.045 17.05 274.045Z" fill="#CCCCCC"/>
<path d="M115.191 247.16H144.571C145.648 247.16 146.682 246.731 147.444 245.969C148.206 245.207 148.634 244.174 148.634 243.096C148.634 242.019 148.206 240.985 147.444 240.223C146.682 239.461 145.648 239.033 144.571 239.033H115.191C114.113 239.033 113.08 239.461 112.318 240.223C111.556 240.985 111.128 242.019 111.128 243.096C111.128 244.174 111.556 245.207 112.318 245.969C113.08 246.731 114.113 247.16 115.191 247.16Z" fill="#CCCCCC"/>
<path d="M17.0499 227.162H144.571C145.648 227.162 146.682 226.734 147.444 225.972C148.206 225.21 148.634 224.177 148.634 223.099C148.634 222.022 148.206 220.988 147.444 220.226C146.682 219.464 145.648 219.036 144.571 219.036H17.0499C15.9722 219.036 14.9388 219.464 14.1768 220.226C13.4148 220.988 12.9867 222.022 12.9867 223.099C12.9867 224.177 13.4148 225.21 14.1768 225.972C14.9388 226.734 15.9722 227.162 17.0499 227.162Z" fill="#CCCCCC"/>
<path d="M120.192 313.739H215.966C217.044 313.739 218.077 313.311 218.839 312.549C219.601 311.787 220.029 310.753 220.029 309.676C220.029 308.598 219.601 307.565 218.839 306.803C218.077 306.041 217.044 305.613 215.966 305.613H120.192C119.114 305.613 118.081 306.041 117.319 306.803C116.557 307.565 116.129 308.598 116.129 309.676C116.129 310.753 116.557 311.787 117.319 312.549C118.081 313.311 119.114 313.739 120.192 313.739Z" fill="#CCCCCC"/>
</g>
<defs>
<clipPath id="clip0_2842_9415">
<rect width="607.602" height="400" fill="white" transform="matrix(-1 0 0 1 607.602 0)"/>
</clipPath>
</defs>
</svg>
