<svg width="421" height="374" viewBox="0 0 421 374" fill="none" xmlns="http://www.w3.org/2000/svg">
<path d="M61.1997 300.346L48.4007 292.2C47.8128 285.049 47.6291 277.869 47.8506 270.697L54.4898 272.392L47.9367 268.221C48.2986 259.355 49.1002 253.506 49.1002 253.506C49.1002 253.506 74.9781 270.3 91.4823 293.063L88.668 312.314L95.3797 298.851C97.0965 301.597 98.6387 304.448 99.9972 307.387C113.595 337.066 114.917 365.563 102.948 371.037C90.9803 376.51 70.2548 356.887 56.6568 327.208C52.4413 318.007 50.1144 307.428 48.9087 297.209L61.1997 300.346Z" fill="#F0F0F0"/>
<path d="M34.909 328.994L19.7379 328.63C15.5345 322.811 11.6629 316.761 8.14165 310.506L14.702 308.528L6.93435 308.342C2.65704 300.566 0.317383 295.145 0.317383 295.145C0.317383 295.145 31.1586 296.157 57.064 307.12L64.6151 325.054L63.3951 310.062C66.2853 311.526 69.0805 313.17 71.7641 314.985C98.76 333.369 114.635 357.082 107.221 367.948C99.8077 378.814 71.9134 372.719 44.9175 354.334C36.5485 348.635 29.0833 340.781 22.7641 332.655L34.909 328.994Z" fill="#F0F0F0"/>
<path d="M251.132 104.982L239.244 103.585L235.048 139.917L224.335 190.089C222.845 190.814 221.629 191.999 220.869 193.47C220.108 194.941 219.844 196.617 220.114 198.25C220.384 199.884 221.175 201.386 222.369 202.534C223.563 203.681 225.095 204.413 226.739 204.62C228.383 204.828 230.05 204.499 231.492 203.683C232.933 202.867 234.073 201.608 234.74 200.093C235.408 198.578 235.568 196.888 235.197 195.275C234.825 193.662 233.942 192.212 232.68 191.14L243.44 161.577L251.132 104.982Z" fill="#FFB6B6"/>
<path d="M268.403 363.998H258.608L253.947 326.251L268.404 326.251L268.403 363.998Z" fill="#FFB6B6"/>
<path d="M270.901 373.484L239.317 373.483V373.084C239.318 369.826 240.613 366.703 242.918 364.399C245.224 362.096 248.35 360.802 251.611 360.802H251.611L270.901 360.803L270.901 373.484Z" fill="#2F2E41"/>
<path d="M343.574 358.66L333.957 360.515L322.217 324.337L336.411 321.599L343.574 358.66Z" fill="#FFB6B6"/>
<path d="M347.828 367.501L316.817 373.484L316.742 373.092C316.123 369.894 316.802 366.581 318.629 363.883C320.455 361.185 323.279 359.322 326.48 358.704L326.481 358.704L345.421 355.05L347.828 367.501Z" fill="#2F2E41"/>
<path d="M253.045 45.4421L258.736 56.3513L301.361 46.9584L296.691 25.8073C292.995 9.06536 278.178 -3.02563 261.421 0.666925C244.665 4.35948 236.845 20.7231 240.541 37.465L247.41 58.847L254.36 57.3156L253.045 45.4421Z" fill="#2F2E41"/>
<path d="M237.846 165.769C237.846 165.769 233.65 186.73 239.244 217.472C244.839 248.215 246.238 261.49 246.238 261.49C246.238 261.49 242.042 266.381 244.839 269.176C247.636 271.97 244.839 277.56 244.839 277.56L251.133 345.333L272.812 341.84L270.015 278.259C270.015 278.259 272.812 272.669 271.414 271.272C270.015 269.874 272.812 261.49 272.812 261.49L276.309 195.114L297.988 267.778C297.988 267.778 295.89 270.573 297.988 272.669C300.086 274.765 304.282 285.246 304.282 285.246L318.269 334.154L340.648 329.962L328.06 274.067C328.06 274.067 329.459 270.573 327.36 268.477C326.749 267.836 326.302 267.056 326.058 266.204C325.814 265.352 325.781 264.454 325.962 263.586C325.962 263.586 328.06 261.49 325.262 258.695C322.465 255.9 321.066 244.721 321.066 244.721C321.066 244.721 318.968 169.961 311.975 165.769C304.982 161.577 237.846 165.769 237.846 165.769Z" fill="#2F2E41"/>
<path d="M269.467 50.1621C280.282 50.1621 289.049 41.4032 289.049 30.5986C289.049 19.794 280.282 11.0352 269.467 11.0352C258.653 11.0352 249.886 19.794 249.886 30.5986C249.886 41.4032 258.653 50.1621 269.467 50.1621Z" fill="#FFB6B6"/>
<path d="M297.062 55.641C297.062 55.641 311.275 53.9777 315.471 58.1699L311.275 142.712C311.275 142.712 314.073 144.808 312.674 149.699C311.862 152.909 311.862 156.27 312.674 159.481C312.674 159.481 316.87 164.371 314.772 166.468C312.674 168.564 237.146 167.166 237.146 167.166C237.146 167.166 234.348 162.275 238.545 159.481C242.741 156.686 240.643 149 240.643 149C240.643 149 239.244 146.904 242.741 143.411C246.237 139.917 249.035 111.271 249.035 111.271L239.943 76.3359C239.943 76.3359 249.095 66.0158 259.555 65.237L297.062 55.641Z" fill="#DADADA"/>
<path d="M250.778 76.8167L239.944 76.3359C239.944 76.3359 233.649 88.9124 232.95 100.092L229.099 141.795L253.93 145.507L250.778 76.8167Z" fill="#DADADA"/>
<path d="M252.691 31.5688L245.417 22.219C244.988 20.2505 245.356 18.1923 246.442 16.4944C247.527 14.7964 249.241 13.5967 251.209 13.1575L278.687 7.10222C280.658 6.67369 282.718 7.04179 284.417 8.1261C286.117 9.21041 287.318 10.9228 287.758 12.889L287.773 12.9565L285.805 24.2469L285.459 24.1851C268.406 21.1474 263.549 22.2159 252.969 31.3297L252.691 31.5688Z" fill="#2F2E41"/>
<path d="M325.874 180.959L324.563 125.943L323.164 86.8164L306.38 88.9125L315.394 182.43C314.435 183.633 313.859 185.095 313.741 186.628C313.622 188.161 313.967 189.695 314.73 191.03C315.493 192.365 316.64 193.441 318.022 194.118C319.403 194.796 320.957 195.043 322.481 194.829C324.005 194.616 325.43 193.95 326.571 192.918C327.712 191.887 328.518 190.537 328.883 189.043C329.249 187.549 329.157 185.981 328.621 184.539C328.084 183.098 327.127 181.851 325.874 180.959Z" fill="#FFB6B6"/>
<path d="M303.229 59.3494L315.472 58.1699C315.472 58.1699 317.57 58.1699 319.668 65.1569C321.766 72.1438 333.3 145.988 333.3 145.988L307.779 148.302L303.229 59.3494Z" fill="#DADADA"/>
<path d="M227.16 146.645H225.524V101.858C225.524 98.4542 224.853 95.0835 223.549 91.9385C222.245 88.7936 220.334 85.936 217.925 83.529C215.515 81.122 212.655 79.2126 209.507 77.9099C206.36 76.6073 202.986 75.9368 199.579 75.9368H104.604C101.197 75.9368 97.8234 76.6072 94.6756 77.9099C91.5278 79.2126 88.6676 81.1219 86.2584 83.5289C83.8492 85.936 81.938 88.7935 80.6342 91.9384C79.3303 95.0834 78.6592 98.4541 78.6592 101.858V347.563C78.6592 354.437 81.3927 361.031 86.2583 365.892C91.124 370.753 97.7233 373.484 104.604 373.484H199.578C206.46 373.484 213.059 370.753 217.924 365.892C222.79 361.031 225.524 354.437 225.524 347.563V178.525H227.16V146.645Z" fill="#DADADA"/>
<path d="M200.625 82.6807H188.228C188.798 84.0771 189.016 85.5923 188.862 87.0926C188.708 88.5928 188.187 90.0323 187.345 91.284C186.503 92.5358 185.366 93.5614 184.033 94.2706C182.701 94.9798 181.215 95.3508 179.705 95.3509H125.296C123.786 95.3508 122.3 94.9798 120.968 94.2706C119.636 93.5614 118.498 92.5358 117.656 91.284C116.814 90.0323 116.293 88.5928 116.139 87.0925C115.985 85.5922 116.203 84.0771 116.773 82.6807H105.194C100.055 82.6807 95.127 84.7201 91.4934 88.3504C87.8597 91.9807 85.8184 96.9045 85.8184 102.038V347.382C85.8184 349.924 86.3195 352.442 87.2932 354.79C88.267 357.139 89.6941 359.273 91.4933 361.07C93.2925 362.868 95.4285 364.294 97.7792 365.267C100.13 366.239 102.65 366.74 105.194 366.74H200.625C203.17 366.74 205.689 366.239 208.04 365.267C210.391 364.294 212.527 362.868 214.326 361.07C216.125 359.273 217.552 357.139 218.526 354.79C219.5 352.442 220.001 349.924 220.001 347.382V102.039C220.001 99.4964 219.5 96.9792 218.526 94.6306C217.552 92.282 216.125 90.148 214.326 88.3505C212.527 86.5529 210.391 85.127 208.04 84.1542C205.689 83.1814 203.17 82.6807 200.625 82.6807Z" fill="white"/>
<path d="M137.59 171.844L140.229 180.977L173.95 180.382L173.655 163.649C173.421 150.404 164.052 138.981 150.795 139.215C137.538 139.448 129.109 150.645 129.343 163.89L131.268 181.135L136.767 181.038L137.59 171.844Z" fill="#2F2E41"/>
<path d="M152.302 178.23C160.658 178.23 167.432 171.462 167.432 163.114C167.432 154.766 160.658 147.998 152.302 147.998C143.946 147.998 137.172 154.766 137.172 163.114C137.172 171.462 143.946 178.23 152.302 178.23Z" fill="#FFB6B6"/>
<path d="M182.418 186.687L182.075 193.045C174.814 200.591 164.908 205.033 154.439 205.438C143.969 205.843 133.75 202.18 125.926 195.218C125.576 194.911 125.233 194.589 124.897 194.261C126.995 192.179 132.786 187.036 139.213 186.561L168.193 184.738C168.193 184.738 179.173 183.452 182.418 186.687Z" fill="#E4E4E4"/>
<path d="M168.865 152.5C168.845 151.342 168.482 150.217 167.823 149.265C167.753 149.167 167.683 149.076 167.613 148.985C167.053 148.271 166.334 147.695 165.514 147.303C164.694 146.912 163.794 146.715 162.885 146.729L152.011 146.924L141.143 147.113C139.586 147.144 138.105 147.79 137.024 148.91C135.943 150.029 135.349 151.531 135.374 153.087L137.961 158.292L139.451 161.282L139.696 161.143C149.102 155.86 152.948 155.791 165.396 160.702L165.648 160.8L166.634 158.278L168.872 152.556L168.865 152.5Z" fill="#2F2E41"/>
<path d="M184.866 189.838C181.763 193.802 177.955 197.16 173.634 199.745L172.956 187.602L182.418 186.687C182.418 186.687 183.551 186.687 184.866 189.838Z" fill="#E4E4E4"/>
<path d="M152.871 206.153C142.764 206.164 133.007 202.457 125.461 195.74C125.104 195.427 124.752 195.097 124.408 194.76C120.345 190.927 117.114 186.302 114.912 181.171C112.711 176.04 111.587 170.512 111.61 164.93C111.61 153.997 115.957 143.511 123.695 135.78C131.433 128.05 141.927 123.707 152.871 123.707C163.814 123.707 174.308 128.05 182.046 135.78C189.784 143.511 194.131 153.997 194.131 164.93C194.166 174.115 191.095 183.044 185.416 190.268C181.56 195.216 176.623 199.219 170.983 201.972C165.343 204.725 159.148 206.155 152.871 206.153ZM152.871 125.104C142.302 125.116 132.17 129.316 124.697 136.782C117.224 144.248 113.02 154.371 113.008 164.93C112.987 170.324 114.073 175.666 116.201 180.624C118.329 185.582 121.453 190.051 125.379 193.754C125.713 194.081 126.047 194.394 126.387 194.693C130.465 198.306 135.24 201.045 140.418 202.743C145.596 204.442 151.068 205.062 156.495 204.567C161.922 204.072 167.19 202.471 171.975 199.864C176.759 197.257 180.959 193.698 184.314 189.408C189.8 182.429 192.766 173.803 192.733 164.93C192.721 154.371 188.517 144.248 181.044 136.782C173.571 129.316 163.439 125.116 152.871 125.104Z" fill="#DADADA"/>
<path d="M189.963 263.304H117.275C116.55 263.304 115.833 263.161 115.163 262.884C114.493 262.607 113.885 262.201 113.372 261.689C112.86 261.177 112.453 260.569 112.176 259.9C111.899 259.231 111.756 258.514 111.756 257.79C111.756 257.066 111.899 256.349 112.176 255.68C112.453 255.011 112.86 254.403 113.372 253.891C113.885 253.379 114.493 252.973 115.163 252.695C115.833 252.418 116.55 252.276 117.275 252.276H189.963C190.688 252.276 191.405 252.418 192.075 252.695C192.745 252.973 193.353 253.379 193.866 253.891C194.378 254.403 194.785 255.011 195.062 255.68C195.339 256.349 195.482 257.066 195.482 257.79C195.482 258.514 195.339 259.231 195.062 259.9C194.785 260.569 194.378 261.177 193.866 261.689C193.353 262.201 192.745 262.607 192.075 262.884C191.405 263.161 190.688 263.304 189.963 263.304Z" fill="#FCAA2D"/>
<path d="M189.963 280.771H117.275C115.811 280.771 114.407 280.191 113.372 279.156C112.337 278.122 111.756 276.72 111.756 275.257C111.756 273.795 112.337 272.392 113.372 271.358C114.407 270.324 115.811 269.743 117.275 269.743H189.963C191.427 269.743 192.831 270.324 193.866 271.358C194.901 272.392 195.482 273.795 195.482 275.257C195.482 276.72 194.901 278.122 193.866 279.156C192.831 280.191 191.427 280.771 189.963 280.771Z" fill="#FCAA2D"/>
<path d="M172.268 245.625H134.971C133.508 245.625 132.104 245.044 131.069 244.009C130.034 242.975 129.452 241.573 129.452 240.11C129.452 238.648 130.034 237.245 131.069 236.211C132.104 235.177 133.508 234.596 134.971 234.596H172.268C173.732 234.596 175.136 235.177 176.171 236.211C177.206 237.245 177.788 238.648 177.788 240.11C177.788 241.573 177.206 242.975 176.171 244.009C175.136 245.044 173.732 245.625 172.268 245.625Z" fill="#FCAA2D"/>
<path d="M420.301 374H0.699336C0.51386 374 0.335992 373.926 0.204841 373.795C0.0736899 373.664 0 373.487 0 373.301C0 373.116 0.0736899 372.938 0.204841 372.807C0.335992 372.676 0.51386 372.603 0.699336 372.603H420.301C420.486 372.603 420.664 372.676 420.795 372.807C420.926 372.938 421 373.116 421 373.301C421 373.487 420.926 373.664 420.795 373.795C420.664 373.926 420.486 374 420.301 374Z" fill="#CACACA"/>
</svg>
