<svg width="429" height="285" viewBox="0 0 429 285" fill="none" xmlns="http://www.w3.org/2000/svg">
<g clip-path="url(#clip0_2842_6890)">
<path opacity="0.1" d="M250.059 56.8417C224.82 55.9462 200.783 47.8126 177.846 38.9314C154.908 30.0502 132.158 20.1684 107.524 15.4533C91.6797 12.4202 73.5582 11.9919 60.7948 20.4721C48.5071 28.6485 44.5373 42.7237 42.4042 55.7982C40.7976 65.6333 39.8539 75.9824 44.2526 85.1906C47.3099 91.5838 52.7304 96.957 56.4818 103.082C69.5338 124.387 60.3073 150.661 46.1674 171.464C39.538 181.225 31.8363 190.542 26.7161 200.923C21.5959 211.303 19.2288 223.213 23.7095 233.811C28.1472 244.324 38.7269 252.204 50.1878 257.753C73.4646 269.021 100.883 272.248 127.638 274.075C186.846 278.12 246.366 276.368 305.729 274.616C327.7 273.966 349.764 273.307 371.375 269.916C383.378 268.032 395.768 265.042 404.483 257.827C415.542 248.665 418.284 233.149 410.871 221.663C398.439 202.394 364.075 197.609 355.375 176.927C350.594 165.546 355.504 152.864 362.457 142.309C377.369 119.664 402.362 99.7953 403.676 73.9071C404.581 56.1292 392.566 38.324 373.988 29.91C354.517 21.0911 327.513 22.2008 313.154 36.7977C298.344 51.8112 272.345 57.5932 250.059 56.8417Z" fill="#2FA69A" fill-opacity="0.58"/>
<path d="M66.7849 284.999C82.5521 284.999 95.3339 282.545 95.3339 279.517C95.3339 276.49 82.5521 274.035 66.7849 274.035C51.0177 274.035 38.2358 276.49 38.2358 279.517C38.2358 282.545 51.0177 284.999 66.7849 284.999Z" fill="#2FA69A"/>
<path d="M66.3049 281.535C68.1398 281.535 69.6274 279.59 69.6274 277.19C69.6274 274.79 68.1398 272.845 66.3049 272.845C64.4699 272.845 62.9824 274.79 62.9824 277.19C62.9824 279.59 64.4699 281.535 66.3049 281.535Z" fill="#3F3D56"/>
<path d="M66.3049 276.225C68.1398 276.225 69.6274 274.279 69.6274 271.879C69.6274 269.48 68.1398 267.534 66.3049 267.534C64.4699 267.534 62.9824 269.48 62.9824 271.879C62.9824 274.279 64.4699 276.225 66.3049 276.225Z" fill="#3F3D56"/>
<path d="M66.3049 270.913C68.1398 270.913 69.6274 268.968 69.6274 266.568C69.6274 264.168 68.1398 262.223 66.3049 262.223C64.4699 262.223 62.9824 264.168 62.9824 266.568C62.9824 268.968 64.4699 270.913 66.3049 270.913Z" fill="#3F3D56"/>
<path d="M66.3049 265.606C68.1398 265.606 69.6274 263.661 69.6274 261.261C69.6274 258.861 68.1398 256.916 66.3049 256.916C64.4699 256.916 62.9824 258.861 62.9824 261.261C62.9824 263.661 64.4699 265.606 66.3049 265.606Z" fill="#3F3D56"/>
<path d="M66.3049 260.295C68.1398 260.295 69.6274 258.349 69.6274 255.95C69.6274 253.55 68.1398 251.604 66.3049 251.604C64.4699 251.604 62.9824 253.55 62.9824 255.95C62.9824 258.349 64.4699 260.295 66.3049 260.295Z" fill="#3F3D56"/>
<path d="M66.3049 254.985C68.1398 254.985 69.6274 253.04 69.6274 250.64C69.6274 248.24 68.1398 246.295 66.3049 246.295C64.4699 246.295 62.9824 248.24 62.9824 250.64C62.9824 253.04 64.4699 254.985 66.3049 254.985Z" fill="#3F3D56"/>
<path d="M66.3049 249.674C68.1398 249.674 69.6274 247.728 69.6274 245.329C69.6274 242.929 68.1398 240.983 66.3049 240.983C64.4699 240.983 62.9824 242.929 62.9824 245.329C62.9824 247.728 64.4699 249.674 66.3049 249.674Z" fill="#3F3D56"/>
<path d="M78.7486 208.99C79.2039 208.414 79.6183 207.806 79.9886 207.172L71.2535 205.739L80.6984 205.809C81.6052 203.841 82.0999 201.709 82.1522 199.543C82.2045 197.377 81.8133 195.223 81.0025 193.213L68.3327 199.778L80.0315 191.212C78.9356 189.325 77.4625 187.683 75.7038 186.389C73.9451 185.095 71.9385 184.176 69.8088 183.69C67.6791 183.203 65.4719 183.159 63.3245 183.561C61.1771 183.963 59.1356 184.802 57.3268 186.025C55.5181 187.249 53.9809 188.831 52.8109 190.673C51.6409 192.515 50.8631 194.578 50.526 196.733C50.1888 198.888 50.2995 201.09 50.8512 203.201C51.4028 205.311 52.3836 207.286 53.7326 209.002C53.025 209.901 52.4158 210.874 51.9153 211.903L63.2554 217.782L51.1666 213.733C50.3162 216.237 50.1055 218.915 50.5535 221.521C51.0016 224.128 52.0943 226.582 53.7326 228.66C51.885 231.005 50.7356 233.822 50.4158 236.788C50.0959 239.755 50.6186 242.751 51.924 245.435C53.2294 248.118 55.2649 250.381 57.7977 251.964C60.3304 253.548 63.2583 254.387 66.2464 254.387C69.2346 254.387 72.1624 253.548 74.6952 251.964C77.2279 250.381 79.2634 248.118 80.5688 245.435C81.8742 242.751 82.3969 239.755 82.0771 236.788C81.7572 233.822 80.6078 231.005 78.7603 228.66C80.9681 225.858 82.1685 222.396 82.1685 218.831C82.1685 215.266 80.9681 211.804 78.7603 209.002L78.7486 208.99Z" fill="#0E766C"/>
<path opacity="0.1" d="M50.3281 218.814C50.3234 222.38 51.5243 225.842 53.7364 228.641C51.8888 230.986 50.7394 233.803 50.4196 236.769C50.0998 239.736 50.6225 242.732 51.9279 245.416C53.2333 248.099 55.2687 250.362 57.8015 251.945C60.3343 253.529 63.2621 254.368 66.2503 254.368C69.2384 254.368 72.1662 253.529 74.699 251.945C77.2318 250.362 79.2672 248.099 80.5726 245.416C81.878 242.732 82.4007 239.736 82.0809 236.769C81.7611 233.803 80.6117 230.986 78.7641 228.641C80.8855 225.943 50.3281 217.035 50.3281 218.814Z" fill="black"/>
<path d="M205.1 213.362C205.342 216.477 206.543 219.701 209.07 221.539C211.596 223.377 215.617 223.342 217.547 220.873C218.195 219.946 218.672 218.911 218.955 217.817C220.581 212.685 221.735 207.07 219.953 201.989C215.933 201.728 211.273 199.84 208.254 203.157C205.817 205.86 204.819 209.761 205.1 213.362Z" fill="#3F3D56"/>
<path d="M223.763 181.969C223.229 186.497 222.32 191.005 222.414 195.565C222.449 197.325 222.636 199.069 222.64 200.837C222.647 205.427 221.436 209.936 219.131 213.907C218.888 214.374 218.563 214.794 218.171 215.146C217.247 215.893 215.855 215.831 214.818 215.258C213.804 214.629 212.981 213.737 212.435 212.677C209.53 207.709 209.448 201.67 208.297 196.036C207.416 191.726 205.872 187.548 205.314 183.187C204.952 180.38 205.006 177.518 204.429 174.746C204.254 173.909 203.762 172.651 203.439 171.417C203.142 170.315 202.978 169.233 203.283 168.489C203.903 166.967 205.934 167.559 207.256 167.652C211.912 167.997 216.587 167.985 221.24 167.617C221.7 167.582 222.223 167.562 222.547 167.889C222.688 168.055 222.794 168.247 222.859 168.454C223.229 169.466 223.512 170.508 223.705 171.569C224.348 174.96 224.169 178.515 223.763 181.969Z" fill="#FABDBD"/>
<g opacity="0.1">
<path opacity="0.1" d="M221.97 167.618C221.73 167.592 221.488 167.592 221.248 167.618C219.018 167.797 216.783 167.886 214.553 167.898C217.025 167.903 219.497 167.81 221.97 167.618Z" fill="black"/>
<path opacity="0.1" d="M215.605 215.259C214.592 214.629 213.768 213.737 213.223 212.677C210.317 207.709 210.236 201.67 209.085 196.036C208.204 191.726 206.66 187.548 206.102 183.188C205.739 180.38 205.794 177.519 205.217 174.746C205.041 173.909 204.55 172.652 204.226 171.417C203.93 170.316 203.766 169.233 204.07 168.489C204.199 168.185 204.417 167.925 204.695 167.745C204.973 167.564 205.299 167.471 205.63 167.477C204.644 167.411 203.68 167.528 203.29 168.489C202.986 169.233 203.15 170.316 203.446 171.417C203.77 172.652 204.261 173.909 204.437 174.746C205.014 177.519 204.959 180.38 205.322 183.188C205.88 187.552 207.424 191.73 208.305 196.036C209.456 201.67 209.538 207.717 212.443 212.677C212.989 213.737 213.812 214.629 214.825 215.259C215.448 215.603 216.161 215.747 216.869 215.671C216.426 215.614 215.997 215.474 215.605 215.259Z" fill="black"/>
</g>
<path d="M238.508 205.848C236.168 210.521 236.558 217.14 236.558 217.14C236.948 232.714 230.709 265.42 230.709 265.42H225.249C225.249 265.42 224.469 229.21 225.249 226.095C226.029 222.98 224.859 212.078 223.689 196.893C222.82 185.602 225.187 175.37 226.458 170.88C226.895 169.323 227.199 168.47 227.199 168.47C227.199 168.47 236.168 155.232 241.238 161.462C242.408 162.91 243.028 165.834 243.242 169.525C243.936 181.704 240.302 202.262 238.508 205.848Z" fill="#FABDBD"/>
<path opacity="0.1" d="M243.242 169.525C243.028 165.834 242.416 162.906 241.238 161.462C240.107 160.076 238.781 159.655 237.408 159.838C238.472 160.015 239.426 160.597 240.068 161.462C241.238 162.91 241.858 165.834 242.072 169.525C242.767 181.704 239.132 202.262 237.338 205.848C234.999 210.521 235.388 217.14 235.388 217.14C235.778 232.714 229.539 265.42 229.539 265.42H230.709C230.709 265.42 236.948 232.714 236.558 217.14C236.558 217.14 236.168 210.521 238.508 205.848C240.302 202.262 243.936 181.704 243.242 169.525Z" fill="black"/>
<path d="M222.41 263.998C221.974 264.339 221.598 264.75 221.295 265.213C220.597 266.529 221.587 268.102 222.648 269.149C223.709 270.196 224.988 271.318 224.988 272.809C224.988 274.008 224.079 275.036 223.061 275.675C222.516 276.017 221.829 276.453 221.942 277.1C221.982 277.263 222.052 277.418 222.149 277.555C223.022 278.891 224.571 279.673 226.138 279.969C227.706 280.265 229.324 280.137 230.919 280.008C231.158 280.017 231.392 279.936 231.574 279.782C231.69 279.627 231.751 279.438 231.75 279.245C231.828 278.42 231.777 277.547 232.14 276.804C232.647 275.788 233.813 275.27 234.48 274.359C235.415 273.113 235.287 271.38 234.932 269.865C234.152 266.568 232.417 262.806 229.812 260.521C226.793 257.897 224.426 262.102 222.41 263.998Z" fill="#3F3D56"/>
<path d="M234.226 67.7446C236.402 64.4974 235.837 59.9575 233.614 56.7259C231.391 53.4942 227.819 51.4618 224.134 50.1496C219.166 48.382 213.687 47.7785 208.582 49.1062C204.519 50.1613 200.869 52.369 197.039 54.0743C190.265 57.0924 182.898 58.5559 175.482 58.3573C167.25 58.1275 158.23 56.0211 151.324 60.5143C138.682 68.7258 144.305 91.0747 132.345 100.228C129.12 102.697 125.06 103.776 121.473 105.679C117.885 107.583 114.485 110.897 114.57 114.954C114.609 116.901 115.467 118.758 116.52 120.405C121.005 127.503 129.389 131.895 137.785 131.813C146.181 131.731 154.374 127.273 159.213 120.413C160.426 118.696 161.494 116.784 163.253 115.639C166.763 113.342 171.388 114.95 175.576 115.293C184.9 116.052 194.228 109.063 196.084 99.8936C196.864 95.9806 196.727 91.3045 199.882 88.8476C202.429 86.8658 206.012 87.2902 209.241 86.9515C215.145 86.3402 219.805 82.6686 223.011 77.8717C224.481 75.6719 224.653 73.0437 226.657 71.3111C228.817 69.4071 232.159 70.8127 234.226 67.7446Z" fill="#3F3D56"/>
<g opacity="0.1">
<path opacity="0.1" d="M167.683 59.1079C171.103 59.2016 174.523 58.9406 177.888 58.3292C176.96 58.3565 176.024 58.3565 175.092 58.3292C168.631 58.1501 161.686 56.8185 155.657 58.4226C159.634 58.4616 163.748 58.9989 167.683 59.1079Z" fill="black"/>
<path opacity="0.1" d="M155.446 116.412C153.688 117.557 152.619 119.469 151.406 121.186C147.679 126.41 142.231 130.16 136.015 131.78C136.471 131.8 136.927 131.811 137.387 131.808C145.791 131.726 153.976 127.268 158.816 120.407C160.028 118.69 161.097 116.778 162.856 115.634L163.16 115.447C160.407 115.069 157.704 114.937 155.446 116.412Z" fill="black"/>
<path opacity="0.1" d="M233.22 56.7132C231.002 53.4971 227.426 51.4491 223.74 50.137C218.772 48.3693 213.293 47.7658 208.189 49.0935C208.072 49.1207 207.959 49.1558 207.846 49.1869C210.743 49.3483 213.602 49.9306 216.331 50.9157C220.016 52.2278 223.592 54.2758 225.811 57.4919C228.03 60.7079 228.599 65.279 226.423 68.5106C224.357 71.5904 221.015 70.1848 218.827 72.081C216.823 73.8136 216.651 76.4418 215.181 78.6416C212.424 82.7571 208.587 86.0394 203.81 87.2853C205.451 87.0906 207.183 87.114 208.821 86.9427C214.725 86.3314 219.385 82.6598 222.59 77.8629C224.06 75.6631 224.232 73.0349 226.236 71.3023C228.424 69.4061 231.766 70.8117 233.833 67.7319C236.013 64.4847 235.447 59.9292 233.22 56.7132Z" fill="black"/>
<path opacity="0.1" d="M201.415 87.7215C198.206 88.0564 194.622 87.6359 192.056 89.6177C188.901 92.0745 189.053 96.7507 188.258 100.664C186.889 107.505 181.328 113.146 174.726 115.245L175.19 115.288C184.514 116.047 193.842 109.058 195.698 99.8889C196.478 95.9758 196.342 91.2997 199.496 88.8429C200.221 88.3018 201.043 87.9052 201.918 87.6748C201.743 87.6787 201.583 87.706 201.415 87.7215Z" fill="black"/>
</g>
<path d="M295.638 53.8048C295.638 53.8048 286.279 72.4939 283.159 79.5022C280.039 86.5106 251.572 97.0232 247.672 97.4126C246.626 97.5557 245.652 98.0244 244.888 98.7519C242.685 100.699 241.433 104.032 241.433 104.032C241.433 104.032 242.993 114.544 241.043 132.065C241.004 132.404 240.969 132.743 240.938 133.07C239.238 149.742 242.798 153.674 242.798 153.674C242.798 153.674 204.972 168.08 206.142 149.391C206.508 143.508 206.454 139.21 206.091 135.616C205.694 131.937 204.944 128.305 203.852 124.769C202.928 121.541 201.825 118.002 200.682 113.181C200.132 110.776 199.407 108.415 198.514 106.115C198.487 106.045 198.459 105.974 198.436 105.908C196.486 101.076 194.536 99.5151 193.421 99.0089C192.368 98.5516 191.364 97.988 190.426 97.3269C186.823 94.7299 179.09 88.9091 172.203 82.0331C162.844 72.6885 153.485 50.4953 153.485 50.4953C153.485 50.4953 150.755 37.6466 156.995 27.134C163.234 16.6214 160.504 47.7698 160.504 47.7698C160.504 47.7698 171.813 62.9547 174.543 69.9631C175.947 73.5685 178.177 75.414 180.002 76.3718C183.018 77.9389 185.904 79.7407 188.636 81.7605C190.482 83.1536 192.423 84.4181 194.443 85.545C198.802 87.8812 204.024 90.5171 208.376 91.2101C209.055 91.3222 209.743 91.3808 210.431 91.3853C210.758 91.3957 211.082 91.3309 211.38 91.1959C211.678 91.0608 211.94 90.8592 212.147 90.6066C213.317 89.2322 213.29 86.2731 213.02 83.8396C212.877 82.579 212.663 81.3273 212.381 80.0902C212.381 80.0902 225.055 72.1084 224.665 81.8423C224.604 82.9179 224.704 83.9965 224.961 85.0428C225.169 86.0031 225.628 86.8913 226.292 87.6164C226.956 88.3415 227.8 88.8776 228.74 89.1699C230.262 89.6156 231.872 89.6678 233.419 89.3218C233.902 89.2395 234.368 89.0804 234.8 88.8506C235.97 88.0719 247.668 84.5677 251.178 84.1784C254.688 83.789 272.236 75.2232 272.236 75.2232L291.344 48.7471C291.344 48.7471 290.954 33.1729 298.753 26.9432C306.553 20.7136 295.638 53.8048 295.638 53.8048Z" fill="#FABDBD"/>
<g opacity="0.1">
<path opacity="0.1" d="M240.937 130.734C240.597 133.862 240.447 137.009 240.489 140.156C240.528 138.1 240.664 135.752 240.937 133.07C240.968 132.743 241.004 132.404 241.043 132.065C241.725 126.069 242.05 120.038 242.017 114.003C241.957 119.258 241.632 124.507 241.043 129.729C241.019 130.068 240.968 130.406 240.937 130.734Z" fill="black"/>
<path opacity="0.1" d="M212.786 79.8418C212.525 79.9936 212.396 80.0871 212.396 80.0871C212.775 81.7527 213.025 83.4448 213.145 85.1487C213.223 83.3719 213.103 81.5919 212.786 79.8418Z" fill="black"/>
<path opacity="0.1" d="M160.687 45.6553C160.878 42.9299 161.163 38.0434 161.108 33.6982C161.042 39.5074 160.523 45.4334 160.523 45.4334L160.687 45.6553Z" fill="black"/>
<path opacity="0.1" d="M206.168 148.937C206.168 149.088 206.168 149.24 206.141 149.392C204.971 168.081 242.797 153.675 242.797 153.675C242.355 153.078 242.021 152.409 241.811 151.697C236.113 153.722 207.482 163.136 206.168 148.937Z" fill="black"/>
<path opacity="0.1" d="M295.637 51.4688C295.637 51.4688 286.278 70.1578 283.158 77.1662C280.038 84.1746 251.571 94.6872 247.672 95.0765C246.625 95.2197 245.651 95.6884 244.887 96.4159C242.684 98.3627 241.432 101.696 241.432 101.696C241.432 101.696 241.526 102.33 241.639 103.537C242.076 102.537 243.199 100.239 244.887 98.7521C245.651 98.0245 246.625 97.5558 247.672 97.4127C251.571 97.0233 280.038 86.5107 283.158 79.5023C286.278 72.494 295.637 53.8049 295.637 53.8049C295.637 53.8049 302.231 33.8115 301.506 27.8311C300.905 35.4936 295.637 51.4688 295.637 51.4688Z" fill="black"/>
<path opacity="0.1" d="M206.09 133.28C205.693 129.601 204.944 125.969 203.852 122.433C202.928 119.205 201.824 115.666 200.682 110.845C200.132 108.44 199.407 106.078 198.513 103.779C198.486 103.708 198.459 103.638 198.435 103.572C196.486 98.7403 194.536 97.179 193.42 96.6728C192.367 96.2155 191.364 95.6519 190.426 94.9908C186.822 92.3938 179.089 86.573 172.203 79.697C162.844 70.3525 153.485 48.1592 153.485 48.1592C153.139 46.2857 152.946 44.3872 152.907 42.4824C152.812 45.1663 153.006 47.8527 153.485 50.4953C153.485 50.4953 162.844 72.6886 172.203 82.0331C179.089 88.9091 186.822 94.73 190.426 97.327C191.371 97.9894 192.383 98.553 193.444 99.009C194.555 99.5151 196.501 101.076 198.459 105.908C198.482 105.975 198.509 106.045 198.537 106.115C199.426 108.415 200.147 110.777 200.693 113.181C201.836 118.002 202.939 121.541 203.864 124.769C204.955 128.305 205.705 131.937 206.102 135.616C206.266 137.244 206.363 139.015 206.391 141.009C206.438 138.429 206.338 135.848 206.09 133.28Z" fill="black"/>
</g>
<path d="M244.712 116.366C244.117 117.349 243.596 118.375 243.153 119.435C242.564 121.07 242.56 122.849 242.451 124.582C242.295 127.013 241.924 129.426 241.343 131.793C241.249 132.229 241.119 132.656 240.953 133.07C240.837 133.349 240.683 133.61 240.497 133.848C240.289 134.102 240.045 134.324 239.772 134.507C239.353 134.785 238.911 135.026 238.45 135.227C233.021 137.758 227.102 139.993 221.178 139.12C218.674 138.683 216.251 137.869 213.991 136.706C211.846 135.667 209.421 134.433 207.198 135.297C206.857 135.47 206.489 135.584 206.11 135.636C206.037 135.637 205.964 135.63 205.892 135.616C205.159 135.476 205.159 133.007 204.991 132.279C204.351 129.484 204.254 127.218 203.872 124.788C203.669 123.445 203.354 122.12 202.932 120.828C201.372 116.117 200.9 111.095 200.9 106.158C200.9 105.912 199.145 106.158 198.56 106.134C198.412 106.134 198.33 106.111 198.365 106.06C198.399 106.012 198.439 105.967 198.482 105.928C198.687 105.762 198.925 105.644 199.181 105.581L199.641 105.445C202.051 104.764 204.71 104.479 206.512 102.786C208.384 101.038 208.852 98.2459 208.77 95.6917C208.746 94.8702 208.345 92.8767 208.411 91.2219C209.09 91.334 209.777 91.3926 210.466 91.3971C210.793 91.4075 211.117 91.3427 211.415 91.2077C211.712 91.0726 211.975 90.871 212.182 90.6184C212.832 91.876 213.395 93.177 213.866 94.512C214.529 96.1395 215.036 97.8526 216.007 99.3244C217.567 101.723 220.445 103.3 223.307 103.058C226.17 102.817 228.833 100.621 229.344 97.802C229.792 95.3296 228.751 91.7709 228.775 89.2012C230.296 89.6468 231.907 89.6991 233.454 89.353C233.52 89.5117 233.576 89.6742 233.622 89.8397C234.499 92.8455 235.669 96.2952 238.613 97.3621C240.516 98.0473 242.766 97.5334 244.525 98.5301C244.66 98.6077 244.791 98.6935 244.915 98.7871C245.321 99.0885 245.671 99.4588 245.949 99.8812C246.671 101.072 247.1 102.417 247.2 103.806C247.651 108.147 246.784 112.523 244.712 116.366Z" fill="#0E766C"/>
<path opacity="0.1" d="M224.961 85.0387C223.015 85.7873 220.921 86.0685 218.846 85.8595C216.772 85.6505 214.776 84.9572 213.02 83.8355C212.876 82.5749 212.663 81.3232 212.38 80.0861C212.38 80.0861 225.054 72.1043 224.664 81.8382C224.604 82.9138 224.704 83.9924 224.961 85.0387Z" fill="black"/>
<path d="M220.176 85.148C227.498 85.148 233.434 79.2211 233.434 71.9099C233.434 64.5988 227.498 58.6719 220.176 58.6719C212.853 58.6719 206.917 64.5988 206.917 71.9099C206.917 79.2211 212.853 85.148 220.176 85.148Z" fill="#FABDBD"/>
<path d="M196.978 104.811C196.978 104.811 222.715 88.4579 302.657 105.979C382.599 123.5 429.004 109.483 429.004 109.483V127.783C429.004 127.783 339.313 137.517 304.997 127.783C270.68 118.049 221.83 112.434 204.722 127.506L196.978 104.811Z" fill="#F86D70"/>
<path opacity="0.1" d="M196.978 104.811C196.978 104.811 222.715 88.4579 302.657 105.979C382.599 123.5 429.004 109.483 429.004 109.483V127.783C429.004 127.783 339.313 137.517 304.997 127.783C270.68 118.049 221.83 112.434 204.722 127.506L196.978 104.811Z" fill="black"/>
<path d="M197.757 105.589C197.757 105.589 222.714 89.2362 302.656 106.757C382.598 124.278 428.224 110.261 428.224 110.261L428.614 127.004C428.614 127.004 339.703 136.738 305.386 127.004C271.069 117.27 222.609 110.487 205.501 125.559L197.757 105.589Z" fill="#FCAA2D"/>
<path d="M188.374 130.74C188.374 130.74 162.637 147.093 82.6948 129.572C2.75278 112.051 6.65239 126.068 6.65239 126.068V107.769C6.65239 107.769 46.0384 98.0347 80.355 107.769C114.672 117.502 163.522 123.117 180.63 108.045L188.374 130.74Z" fill="#F86D70"/>
<path opacity="0.1" d="M188.374 130.74C188.374 130.74 162.637 147.093 82.6948 129.572C2.75278 112.051 6.65239 126.068 6.65239 126.068V107.769C6.65239 107.769 46.0384 98.0347 80.355 107.769C114.672 117.502 163.522 123.117 180.63 108.045L188.374 130.74Z" fill="black"/>
<path d="M187.595 129.962C187.595 129.962 162.637 146.315 82.6954 128.794C2.7534 111.273 7.43293 125.29 7.43293 125.29L7.04297 108.548C7.04297 108.548 45.6491 98.814 79.9657 108.548C114.282 118.282 162.743 125.064 179.85 109.992L187.595 129.962Z" fill="#FEAB0D"/>
<path d="M208.773 74.1022C208.383 71.6726 207.783 68.6123 209.818 67.2223C210.544 66.7828 211.384 66.5661 212.232 66.5993C216.448 66.5565 220.476 69.4884 224.61 68.6318C225.925 68.3565 227.133 67.7077 228.088 66.7634C229.043 65.819 229.704 64.6194 229.993 63.3086C230.281 61.9979 230.184 60.6319 229.713 59.3749C229.243 58.1179 228.418 57.0234 227.339 56.223C225.713 55.016 223.658 54.58 221.669 54.1711C216.44 53.0965 210.98 52.0258 205.817 53.3924C200.654 54.7591 195.936 59.3807 196.349 64.6837C196.544 67.2223 197.839 69.5273 199.192 71.6921C200.221 73.3352 204.23 81.0366 206.176 81.1534C208.921 81.3131 209.042 75.6908 208.773 74.1022Z" fill="#3F3D56"/>
<path d="M241.628 147.056C241.628 147.056 214.72 153.675 205.751 147.056C205.751 147.056 201.852 162.24 203.022 170.028C203.022 170.028 222.13 171.196 224.08 172.364C224.08 172.364 224.47 169.249 226.419 170.806C226.419 170.806 233.049 163.019 245.137 170.028C245.137 170.028 247.477 151.728 241.628 147.056Z" fill="#0E766C"/>
<path opacity="0.1" d="M227.347 56.2228C227.07 56.0221 226.779 55.84 226.478 55.6777C227.282 56.5911 227.833 57.6994 228.074 58.8918C228.315 60.0842 228.239 61.3189 227.853 62.4725C227.466 63.6262 226.783 64.6584 225.872 65.4659C224.961 66.2734 223.853 66.828 222.66 67.0742C218.526 67.9307 214.498 64.9989 210.283 65.0417C209.434 65.0085 208.595 65.2252 207.869 65.6647C205.833 67.0547 206.43 70.115 206.82 72.5446C207.077 74.1332 206.972 79.7555 204.234 79.6036H204.188C204.94 80.5186 205.642 81.1377 206.184 81.161C208.914 81.3129 209.027 75.7101 208.77 74.102C208.38 71.6724 207.783 68.6121 209.819 67.2221C210.545 66.7826 211.384 66.5659 212.232 66.5991C216.448 66.5563 220.476 69.4882 224.61 68.6316C225.925 68.3563 227.133 67.7075 228.088 66.7632C229.043 65.8188 229.705 64.6192 229.993 63.3084C230.281 61.9977 230.184 60.6317 229.713 59.3747C229.243 58.1177 228.418 57.0232 227.339 56.2228H227.347Z" fill="black"/>
<g opacity="0.1">
<path opacity="0.1" d="M33.6769 37.7276C33.6769 37.7276 4.51952 25.4863 0.697904 47.5627C0.697904 47.5627 -1.2948 51.0007 1.47783 53.843C1.47783 53.843 2.07447 52.3206 4.89389 53.8975C5.90036 54.4501 6.96838 54.8826 8.07597 55.1863C9.57268 55.5985 11.163 55.5138 12.6073 54.9449C12.6073 54.9449 22.1965 54.427 30.2608 41.9015C30.2608 41.9015 33.7159 39.7678 33.8914 38.9696L28.1122 39.359C28.1122 39.359 28.5528 43.5835 26.1624 46.1182C26.1624 46.1182 28.2876 39.5654 27.2659 39.3785C27.0593 39.3395 24.2126 39.7172 24.2126 39.7172C24.2126 39.7172 24.9496 47.0604 21.0929 50.8605C21.0929 50.8605 24.6727 43.3888 23.1129 39.8496L18.8506 40.6711C18.8506 40.6711 20.0205 48.3959 15.8011 52.893C15.8011 52.893 19.2678 44.9501 17.9303 40.9125L13.8435 42.2831C13.8435 42.2831 14.8301 49.8443 11.3009 53.5743C11.3009 53.5743 14.3816 43.9923 12.931 42.6724C12.931 42.6724 9.25755 44.1597 8.46983 45.0085C8.46983 45.0085 9.05477 50.4595 6.80859 52.4063C6.80859 52.4063 8.18906 45.7872 7.50663 45.5147C7.50663 45.5147 3.23655 48.723 1.93798 51.4913C1.93798 51.4913 3.56022 47.2629 6.96848 44.8723C6.96848 44.8723 4.10616 44.3895 1.89899 45.5848C1.89899 45.5848 3.37694 42.7775 8.00187 44.1091C8.00187 44.1091 11.4296 41.7419 12.116 41.773C12.116 41.773 7.7406 39.8262 4.57802 40.0637C4.57802 40.0637 7.96678 38.117 13.1884 41.372L17.2595 39.9002C17.2595 39.9002 11.609 37.0073 8.774 37.019C8.774 37.019 12.541 35.5667 18.3202 39.616L22.4889 38.7633C22.4889 38.7633 17.8094 35.9015 14.6546 35.2357C14.6546 35.2357 18.4411 34.64 23.6939 38.5686L26.5484 38.3272C26.5484 38.3272 23.0934 36.2987 22.0483 35.8042C21.0032 35.3097 21.05 34.9865 21.05 34.9865C23.5374 35.4177 25.8557 36.5313 27.7456 38.2026C27.7456 38.2026 33.6496 38.0897 33.6769 37.7276Z" fill="#6C63FF"/>
</g>
<g opacity="0.1">
<path opacity="0.1" d="M32.6009 15.7849C32.6009 15.7849 22.2513 -8.07088 7.3977 2.87C7.3977 2.87 4.25071 3.78109 4.27801 7.0361C4.27801 7.0361 5.50249 6.47153 6.27461 9.01013C6.5633 9.91163 6.95589 10.7766 7.44449 11.5877C8.09073 12.6786 9.07485 13.53 10.2483 14.0133C10.2483 14.0133 16.2381 19.1606 28.1865 16.3066C28.1865 16.3066 31.4583 17.0075 32.0198 16.6298L28.3659 13.5695C28.3659 13.5695 26.2211 16.33 23.3432 16.4663C23.3432 16.4663 28.3464 13.7797 27.8434 13.0867C27.742 12.9465 25.839 11.5526 25.839 11.5526C25.839 11.5526 22.0836 16.3339 17.6498 16.4079C17.6498 16.4079 24.0412 14.0017 25.1331 11.0153L22.1343 9.06853C22.1343 9.06853 18.4141 14.3209 13.3485 14.5935C13.3485 14.5935 19.9388 11.868 21.448 8.69086L18.2386 7.18016C18.2386 7.18016 14.5106 12.2418 10.2951 12.4326C10.2951 12.4326 17.5913 8.49228 17.4782 6.88425C17.4782 6.88425 14.4482 5.67725 13.4889 5.74733C13.4889 5.74733 10.7319 9.30993 8.27121 9.2087C8.27121 9.2087 12.8689 6.05882 12.6154 5.50983C12.6154 5.50983 8.24781 4.98809 5.89635 5.89918C5.89635 5.89918 9.27341 4.31061 12.6622 4.83235C12.6622 4.83235 11.2388 2.91283 9.25391 2.37941C9.25391 2.37941 11.7341 1.55008 13.7229 4.97251C13.7229 4.97251 17.1077 5.51372 17.5016 5.91865C17.5016 5.91865 16.0197 2.2626 13.9919 0.615631C13.9919 0.615631 17.1116 1.39434 18.3595 6.28854L21.6157 7.73304C21.6157 7.73304 19.9115 2.79991 18.1996 1.19966C18.1996 1.19966 21.2686 2.47675 22.3917 8.16912L25.3515 10.0341C25.3515 10.0341 24.2011 5.67335 22.7115 3.50075C22.7115 3.50075 25.3008 5.29568 26.1821 10.6182L28.0149 12.0977C28.0149 12.0977 27.118 8.92836 26.7788 8.04063C26.4395 7.1529 26.654 6.98937 26.654 6.98937C27.8836 8.66158 28.6247 10.6415 28.7949 12.709C28.7949 12.709 32.3903 15.9874 32.6009 15.7849Z" fill="#6C63FF"/>
</g>
</g>
<defs>
<clipPath id="clip0_2842_6890">
<rect width="429" height="285" fill="white"/>
</clipPath>
</defs>
</svg>
