<svg width="60" height="60" viewBox="0 0 60 60" fill="none" xmlns="http://www.w3.org/2000/svg">
<g id="room_24px">
<g id="icon/action/room_24px">
<path fill-rule="evenodd" clip-rule="evenodd" d="M30 5C20.325 5 12.5 12.825 12.5 22.5C12.5 35.625 30 55 30 55C30 55 47.5 35.625 47.5 22.5C47.5 12.825 39.675 5 30 5ZM17.5 22.5C17.5 15.6 23.1 10 30 10C36.9 10 42.5 15.6 42.5 22.5C42.5 29.7 35.3 40.475 30 47.2C24.8 40.525 17.5 29.625 17.5 22.5ZM23.75 22.5C23.75 19.0482 26.5482 16.25 30 16.25C32.2329 16.25 34.2962 17.4412 35.4127 19.375C36.5291 21.3088 36.5291 23.6912 35.4127 25.625C34.2962 27.5588 32.2329 28.75 30 28.75C26.5482 28.75 23.75 25.9518 23.75 22.5Z" fill="#808285"/>
<path d="M30 55L29.2579 55.6703L30 56.4919L30.7421 55.6703L30 55ZM30 47.2L29.2111 47.8146L29.9954 48.8214L30.7854 47.819L30 47.2ZM35.4127 19.375L34.5466 19.875L35.4127 19.375ZM35.4127 25.625L36.2787 26.125L35.4127 25.625ZM13.5 22.5C13.5 13.3773 20.8773 6 30 6V4C19.7727 4 11.5 12.2727 11.5 22.5H13.5ZM30 55C30.7421 54.3297 30.7421 54.3298 30.7421 54.3298C30.742 54.3296 30.7419 54.3295 30.7417 54.3293C30.7414 54.3289 30.7407 54.3282 30.7398 54.3272C30.738 54.3251 30.7351 54.322 30.7312 54.3176C30.7234 54.3089 30.7115 54.2956 30.6955 54.2778C30.6636 54.2421 30.6158 54.1883 30.553 54.1172C30.4274 53.975 30.2421 53.7636 30.0057 53.4891C29.5328 52.9402 28.8555 52.1397 28.0421 51.1374C26.4143 49.1318 24.2457 46.3239 22.079 43.1126C19.9103 39.8984 17.7561 36.2981 16.147 32.7064C14.532 29.1016 13.5 25.5789 13.5 22.5H11.5C11.5 25.9836 12.6555 29.8047 14.3218 33.5241C15.9939 37.2566 18.2147 40.961 20.421 44.2312C22.6293 47.5042 24.8357 50.3604 26.4892 52.3978C27.3164 53.417 28.0063 54.2326 28.4904 54.7946C28.7325 55.0756 28.9232 55.2932 29.054 55.4412C29.1194 55.5152 29.1697 55.5719 29.2041 55.6103C29.2213 55.6295 29.2344 55.6442 29.2434 55.6542C29.2479 55.6592 29.2514 55.6631 29.2538 55.6658C29.255 55.6671 29.256 55.6682 29.2567 55.6689C29.257 55.6693 29.2573 55.6696 29.2575 55.6698C29.2577 55.6701 29.2579 55.6703 30 55ZM46.5 22.5C46.5 25.5789 45.468 29.1016 43.853 32.7064C42.2439 36.2981 40.0897 39.8984 37.921 43.1126C35.7543 46.3239 33.5857 49.1318 31.9579 51.1374C31.1445 52.1397 30.4673 52.9402 29.9943 53.4891C29.7579 53.7636 29.5726 53.975 29.447 54.1172C29.3842 54.1883 29.3364 54.2421 29.3045 54.2778C29.2885 54.2956 29.2766 54.3089 29.2688 54.3176C29.2649 54.322 29.262 54.3251 29.2602 54.3272C29.2593 54.3282 29.2586 54.3289 29.2583 54.3293C29.2581 54.3295 29.258 54.3296 29.2579 54.3298C29.2579 54.3298 29.2579 54.3297 30 55C30.7421 55.6703 30.7423 55.6701 30.7425 55.6698C30.7427 55.6696 30.743 55.6693 30.7433 55.6689C30.744 55.6682 30.745 55.6671 30.7462 55.6658C30.7486 55.6631 30.7521 55.6592 30.7566 55.6542C30.7656 55.6442 30.7787 55.6295 30.7959 55.6103C30.8303 55.5719 30.8807 55.5152 30.946 55.4412C31.0768 55.2932 31.2675 55.0756 31.5096 54.7946C31.9937 54.2326 32.6836 53.417 33.5108 52.3978C35.1643 50.3604 37.3707 47.5042 39.579 44.2312C41.7853 40.961 44.0061 37.2566 45.6782 33.5241C47.3445 29.8047 48.5 25.9836 48.5 22.5H46.5ZM30 6C39.1227 6 46.5 13.3773 46.5 22.5H48.5C48.5 12.2727 40.2273 4 30 4V6ZM30 9.00002C22.5477 9.00002 16.5 15.0477 16.5 22.5H18.5C18.5 16.1523 23.6523 11 30 11V9.00002ZM43.5 22.5C43.5 15.0477 37.4523 9.00002 30 9.00002V11C36.3477 11 41.5 16.1523 41.5 22.5H43.5ZM30.7854 47.819C33.4554 44.4311 36.6146 40.0103 39.1117 35.5136C41.5873 31.0557 43.5 26.371 43.5 22.5H41.5C41.5 25.829 39.8126 30.1319 37.3632 34.5427C34.9353 38.9147 31.8446 43.2439 29.2146 46.581L30.7854 47.819ZM16.5 22.5C16.5 26.3363 18.4404 31.0357 20.926 35.5048C23.4347 40.0153 26.5927 44.4535 29.2111 47.8146L30.7888 46.5855C28.2072 43.2716 25.1152 38.9222 22.6739 34.5327C20.2095 30.1019 18.5 25.7887 18.5 22.5H16.5ZM30 15.25C25.9959 15.25 22.75 18.4959 22.75 22.5H24.75C24.75 19.6005 27.1005 17.25 30 17.25V15.25ZM36.2787 18.875C34.9836 16.6318 32.5902 15.25 30 15.25V17.25C31.8756 17.25 33.6088 18.2506 34.5466 19.875L36.2787 18.875ZM36.2787 26.125C37.5738 23.8818 37.5738 21.1182 36.2787 18.875L34.5466 19.875C35.4845 21.4994 35.4845 23.5006 34.5466 25.125L36.2787 26.125ZM30 29.75C32.5902 29.75 34.9836 28.3682 36.2787 26.125L34.5466 25.125C33.6088 26.7494 31.8756 27.75 30 27.75V29.75ZM22.75 22.5C22.75 26.5041 25.9959 29.75 30 29.75V27.75C27.1005 27.75 24.75 25.3995 24.75 22.5H22.75Z" fill="#808285"/>
</g>
</g>
</svg>
