<svg width="14" height="14" viewBox="0 0 14 14" fill="none" xmlns="http://www.w3.org/2000/svg">
<path d="M6.99998 0.583333C3.45623 0.583333 0.583313 3.45625 0.583313 7C0.583313 10.5439 3.45623 13.4167 6.99998 13.4167C10.5439 13.4167 13.4166 10.5439 13.4166 7C13.4166 3.45625 10.5439 0.583333 6.99998 0.583333ZM6.99998 12.25C4.10052 12.25 1.74998 9.89946 1.74998 7C1.74998 4.10054 4.10052 1.75 6.99998 1.75C9.89944 1.75 12.25 4.10054 12.25 7C12.25 9.89946 9.89944 12.25 6.99998 12.25Z" fill="#25769A"/>
<path d="M7.58335 6.75835V3.5C7.58335 3.17785 7.32217 2.91667 7.00002 2.91667C6.67787 2.91667 6.41669 3.17785 6.41669 3.5V7C6.41669 7.00131 6.41712 7.00262 6.41712 7.00394C6.41727 7.04083 6.42092 7.07773 6.42821 7.11404C6.43171 7.13198 6.43827 7.14816 6.44337 7.16566C6.44906 7.18491 6.45344 7.20446 6.46117 7.22327C6.46962 7.24339 6.481 7.26177 6.4915 7.28073C6.49937 7.29531 6.50565 7.30989 6.51483 7.32375C6.53627 7.35598 6.56062 7.38616 6.5879 7.41314L8.23742 9.06281C8.46521 9.2906 8.8349 9.2906 9.06254 9.06281C9.29033 8.83502 9.29033 8.46533 9.06254 8.23798L7.58335 6.75835Z" fill="#25769A"/>
</svg>
