<svg width="12" height="33" viewBox="0 0 12 33" fill="none" xmlns="http://www.w3.org/2000/svg">
<path fill-rule="evenodd" clip-rule="evenodd" d="M9.76047 1.06073C10.1447 1.41677 10.3802 1.90477 10.42 2.42706C10.42 3.66306 8.34799 6.00409 8.34799 6.00409C8.34799 6.00409 6.276 3.66306 6.276 2.42706C6.31578 1.90477 6.55132 1.41677 6.93552 1.06073C7.31971 0.704685 7.82419 0.506836 8.34799 0.506836C8.8718 0.506836 9.37627 0.704685 9.76047 1.06073ZM7.73123 1.94141C7.65871 2.04994 7.62 2.17751 7.62 2.30804L7.61699 2.30707C7.61686 2.39408 7.63394 2.48022 7.66724 2.56061C7.70053 2.641 7.74939 2.71402 7.811 2.77545C7.87262 2.83688 7.94579 2.88552 8.02628 2.91858C8.10677 2.95163 8.19299 2.96848 8.28 2.96808C8.41054 2.96808 8.53813 2.92933 8.64667 2.85681C8.7552 2.78429 8.8398 2.68121 8.88976 2.56061C8.93971 2.44001 8.95277 2.30735 8.92731 2.17932C8.90184 2.05129 8.83899 1.93367 8.74669 1.84137C8.65439 1.74907 8.53678 1.68623 8.40875 1.66077C8.28072 1.6353 8.14802 1.64835 8.02742 1.6983C7.90682 1.74826 7.80376 1.83287 7.73123 1.94141ZM9.53203 8.40594H10.385C10.5753 8.40621 10.7577 8.48202 10.8921 8.61664C11.0265 8.75126 11.102 8.93371 11.102 9.12396V10.165H10.019V22.86C10.019 28.786 6.60302 32.356 0.89502 32.501C4.53002 31.16 6.74803 26.931 6.74803 22.823V21.211L7.26703 20.92L7.82002 20.61L7.26703 20.3L6.74803 20.009V17.8979L7.26703 17.607L7.82002 17.297L7.26703 16.987L6.74803 16.696V14.58L7.26703 14.289L7.82002 13.9789L7.26703 13.668L6.74803 13.377V10.165H5.59203V9.12396C5.59203 8.93354 5.66767 8.75092 5.80232 8.61627C5.93697 8.48162 6.11961 8.40594 6.31003 8.40594H7.16302V7.83496C7.16302 7.68432 7.22287 7.53987 7.32939 7.43335C7.43591 7.32683 7.58039 7.26697 7.73103 7.26697H8.96402C9.11466 7.26697 9.25914 7.32683 9.36566 7.43335C9.47218 7.53987 9.53203 7.68432 9.53203 7.83496V8.40594Z" fill="white"/>
</svg>
