<svg width="123" height="177" viewBox="0 0 123 177" fill="none" xmlns="http://www.w3.org/2000/svg">
<path d="M61.5 122.232C94.9263 122.232 122.024 95.135 122.024 61.7086C122.024 28.2823 94.9263 1.18489 61.5 1.18489C28.0737 1.18489 0.97625 28.2823 0.97625 61.7086C0.97625 95.135 28.0737 122.232 61.5 122.232Z" fill="#B32727" stroke="#B32727" stroke-miterlimit="10"/>
<path d="M61.5 176.05C59.9525 176.05 57.7173 173.815 57.7173 173.815C-7.62084 98.6763 0.976272 61.7086 0.976272 61.7086C0.976272 61.7086 19.8899 122.06 61.5 122.232" fill="#B32727"/>
<path d="M61.5 176.05C63.0475 176.05 65.2827 173.815 65.2827 173.815C130.621 98.6763 122.024 61.7086 122.024 61.7086C122.024 61.7086 103.11 122.06 61.5 122.232" fill="#B32727"/>
<path d="M68.4275 33.723C68.3297 32.4383 67.7503 31.2381 66.8053 30.3623C65.8604 29.4866 64.6196 29 63.3312 29C62.0429 29 60.8021 29.4866 59.8571 30.3623C58.9122 31.2381 58.3328 32.4383 58.235 33.723C58.235 36.763 63.3312 42.521 63.3312 42.521C63.3312 42.521 68.4275 36.763 68.4275 33.723ZM61.5406 33.4302C61.5406 33.1092 61.6359 32.7954 61.8142 32.5284C61.9926 32.2615 62.2461 32.0534 62.5427 31.9305C62.8394 31.8076 63.1658 31.7756 63.4807 31.8382C63.7956 31.9008 64.0848 32.0554 64.3118 32.2824C64.5389 32.5094 64.6935 32.7987 64.7561 33.1136C64.8187 33.4285 64.7866 33.7548 64.6637 34.0514C64.5409 34.348 64.3328 34.6016 64.0658 34.78C63.7989 34.9583 63.485 35.0536 63.164 35.0536C62.95 35.0546 62.7379 35.0132 62.5399 34.9319C62.342 34.8506 62.162 34.7309 62.0104 34.5799C61.8589 34.4288 61.7387 34.2491 61.6568 34.0514C61.5749 33.8537 61.5329 33.6418 61.5333 33.4278L61.5406 33.4302Z" fill="white"/>
<path d="M68.3415 48.4288H66.2435V47.0244C66.2435 46.6539 66.0963 46.2986 65.8343 46.0366C65.5723 45.7746 65.2169 45.6273 64.8464 45.6273H61.8138C61.4432 45.6273 61.0879 45.7746 60.8259 46.0366C60.5639 46.2986 60.4167 46.6539 60.4167 47.0244V48.4288H58.3187C57.8503 48.4288 57.4011 48.6149 57.0699 48.9461C56.7387 49.2773 56.5527 49.7264 56.5527 50.1948V52.7552H59.396V60.6554L60.6725 61.3711L62.0326 62.136L60.6725 62.8986L59.396 63.6143V68.8188L60.6725 69.5346L62.0326 70.297L60.6725 71.0595L59.396 71.7751V76.9674L60.6725 77.6832L62.0326 78.4456L60.6725 79.2081L59.396 79.9239V83.8887C59.396 93.9927 53.9406 104.394 45 107.693C59.0393 107.336 67.4413 98.5552 67.4413 83.9797V52.7552H70.105V50.1948C70.105 49.7268 69.9193 49.2781 69.5886 48.947C69.258 48.6159 68.8094 48.4294 68.3415 48.4288V48.4288Z" fill="white"/>
</svg>
