<svg width="53" height="63" viewBox="0 0 53 63" fill="none" xmlns="http://www.w3.org/2000/svg">
<path fill-rule="evenodd" clip-rule="evenodd" d="M11.3265 31.1528C11.3048 33.1089 11.6687 35.0503 12.3973 36.8658C13.126 38.6814 14.2052 40.3356 15.5732 41.734C16.9412 43.1325 18.5714 44.2477 20.3705 45.0161C22.1696 45.7845 24.1024 46.1909 26.0586 46.2122V50.2656L24.4155 57.71C17.7348 57.2111 11.4942 54.1888 6.96058 49.2566C2.42692 44.3243 -0.0600669 37.8518 0.00443901 31.1528C-0.107949 25.0725 1.91686 19.1455 5.72597 14.4049C9.53509 9.66431 14.8869 6.41067 20.8488 5.21107H24.322L24.4054 16.1932C20.7701 16.6487 17.4291 18.4245 15.0176 21.1827C12.6061 23.9409 11.2925 27.4892 11.3265 31.1528V31.1528Z" fill="#92BBCC"/>
<path fill-rule="evenodd" clip-rule="evenodd" d="M26.0586 57.7947C25.505 57.7947 24.9641 57.7441 24.4155 57.71L26.0586 50.2656V46.2122C30.053 46.2122 33.8837 44.6255 36.7081 41.801C39.5326 38.9766 41.1193 35.1459 41.1193 31.1515C41.1193 27.1572 39.5326 23.3264 36.7081 20.502C33.8837 17.6775 30.053 16.0908 26.0586 16.0908C25.5094 16.0942 24.9608 16.1288 24.4155 16.1944L24.3271 12.1575C24.3271 12.1575 23.1794 4.51594 26.0586 4.51594C33.0454 4.59461 39.715 7.44484 44.6008 12.4399C49.4866 17.435 52.1886 24.1659 52.1128 31.1528C52.19 38.1405 49.4885 44.8728 44.6026 49.8689C39.7166 54.8651 33.0463 57.716 26.0586 57.7947V57.7947Z" fill="#FDD9D6"/>
<path fill-rule="evenodd" clip-rule="evenodd" d="M29.5407 62.528V38.2117L17.3743 50.3705L29.5407 62.528Z" fill="#FDD9D6"/>
<path fill-rule="evenodd" clip-rule="evenodd" d="M22.5665 0V22.5797L33.0291 11.3006L22.5665 0Z" fill="#92BBCC"/>
</svg>
