<svg width="22" height="21" viewBox="0 0 22 21" fill="none" xmlns="http://www.w3.org/2000/svg">
<path d="M21.084 17.865L16.729 13.507C17.9036 11.7304 18.3767 9.58087 18.0565 7.47524C17.7363 5.36961 16.6457 3.45789 14.996 2.11074C13.3463 0.763595 11.2552 0.0770051 9.12808 0.184096C7.00094 0.291188 4.98934 1.18433 3.48332 2.69035C1.9773 4.19637 1.08416 6.20797 0.977065 8.33511C0.869974 10.4622 1.55656 12.5534 2.90371 14.203C4.25086 15.8527 6.16258 16.9434 8.26821 17.2636C10.3738 17.5837 12.5233 17.1107 14.3 15.936L18.655 20.291C18.9767 20.6127 19.413 20.7934 19.868 20.7934C20.3229 20.7934 20.7593 20.6127 21.081 20.291C21.4027 19.9693 21.5834 19.533 21.5834 19.078C21.5834 18.623 21.4027 18.1867 21.081 17.865H21.084ZM3.57297 8.785C3.57297 7.59831 3.92486 6.43828 4.58415 5.45158C5.24344 4.46489 6.18051 3.69585 7.27687 3.24172C8.37323 2.7876 9.57963 2.66878 10.7435 2.90029C11.9074 3.1318 12.9765 3.70325 13.8156 4.54236C14.6547 5.38148 15.2262 6.45057 15.4577 7.61446C15.6892 8.77835 15.5704 9.98475 15.1162 11.0811C14.6621 12.1775 13.8931 13.1145 12.9064 13.7738C11.9197 14.4331 10.7597 14.785 9.57297 14.785C7.98257 14.7821 6.45813 14.149 5.33354 13.0244C4.20895 11.8998 3.57588 10.3754 3.57297 8.785Z" fill="white"/>
</svg>
