<svg width="463" height="279" viewBox="0 0 463 279" fill="none" xmlns="http://www.w3.org/2000/svg">
<g clip-path="url(#clip0_2841_11689)">
<path d="M24.1548 278.377C24.1239 278.24 21.1283 264.549 27.246 253.178C33.3637 241.808 46.4225 236.793 46.5537 236.744L47.1506 236.519L47.2916 237.143C47.3225 237.279 50.3181 250.97 44.2004 262.341C38.0829 273.712 25.0239 278.726 24.8927 278.776L24.2956 279L24.1548 278.377ZM46.3321 238.041C43.7163 239.168 33.3925 244.104 28.2256 253.708C23.0582 263.312 24.6172 274.67 25.1143 277.479C27.729 276.354 38.0487 271.426 43.2208 261.812C48.388 252.208 46.8295 240.851 46.3321 238.041V238.041Z" fill="#F1F1F1"/>
<path d="M39.5287 258.353C28.5349 264.982 24.3008 278.149 24.3008 278.149C24.3008 278.149 37.8913 280.568 48.8851 273.939C59.8789 267.31 64.113 254.143 64.113 254.143C64.113 254.143 50.5226 251.723 39.5287 258.353Z" fill="#F1F1F1"/>
<path d="M206.015 152.082C206.183 151.215 206.158 150.321 205.944 149.464C205.73 148.607 205.331 147.808 204.775 147.122C204.219 146.437 203.52 145.881 202.727 145.496C201.934 145.11 201.066 144.904 200.185 144.891L195.094 132.059L186.559 133.258L194.002 151.278C194.078 152.763 194.696 154.169 195.737 155.229C196.778 156.288 198.171 156.928 199.652 157.028C201.133 157.127 202.598 156.678 203.771 155.767C204.944 154.855 205.742 153.544 206.015 152.082Z" fill="#FDD9D6"/>
<path d="M190.293 147.573L187.648 141.253L171.168 109.813L172.064 51.6366L172.236 51.6137C182.781 50.2173 189.916 98.9143 190.215 100.988L200.627 136.679L203.106 144.546L190.293 147.573Z" fill="#2FA69A"/>
<path d="M164.97 270.247L172.983 270.246L176.795 239.271L164.969 239.271L164.97 270.247Z" fill="#FDD9D6"/>
<path d="M162.926 267.625L178.706 267.624H178.706C181.373 267.624 183.931 268.686 185.817 270.576C187.703 272.466 188.762 275.03 188.762 277.703V278.03L162.926 278.031L162.926 267.625Z" fill="#646464"/>
<path d="M91.293 258.011L97.8674 262.602L118.665 239.374L108.962 232.597L91.293 258.011Z" fill="#FDD9D6"/>
<path d="M91.1119 254.689L104.058 263.731L104.059 263.731C106.247 265.26 107.74 267.596 108.209 270.228C108.678 272.859 108.085 275.569 106.56 277.762L106.373 278.031L85.1758 263.227L91.1119 254.689Z" fill="#646464"/>
<path d="M160.564 262.966L160.218 204.858L155.176 168.32L145.777 200.452L145.758 200.478L111.696 250.041L98.4414 243.31L98.514 243.137C99.324 241.206 118.41 195.856 123.541 195.856C123.989 195.887 124.438 195.809 124.849 195.628C125.26 195.447 125.621 195.169 125.901 194.817C127.407 192.801 126.18 188.525 126.168 188.482C124.699 182.379 128.392 180.3 129.127 179.953L131.105 139.027L131.31 139.041L184.937 142.811L182.687 193.98L177.848 261.021L177.681 261.04L160.564 262.966Z" fill="#646464"/>
<path d="M185.758 151.88L185.526 151.861L127.852 147.201L127.994 128.076L130.817 78.1378L130.833 78.1031L142.329 53.0898L150.478 49.3915L162.367 48.7644L162.396 48.7717L173.246 51.466L184.534 132.675L185.758 151.88Z" fill="#2FA69A"/>
<path d="M164.231 42.354C171.59 38.3223 174.294 29.0752 170.272 21.7C166.249 14.3248 157.023 11.6143 149.664 15.6459C142.305 19.6776 139.601 28.9247 143.623 36.2999C147.646 43.6752 156.872 46.3857 164.231 42.354Z" fill="#FDD9D6"/>
<path d="M141.673 32.8202V26.8905C141.673 26.8905 136.902 21.2585 142.151 19.8398C142.151 19.8398 143.582 5.6528 155.987 12.2734C155.987 12.2734 173.164 9.436 171.255 19.3669C171.255 19.3669 175.549 16.7743 174.118 23.3949L171.35 34.0595C171.35 34.0595 172.687 27.0148 168.392 26.0689L166.007 24.6502C166.007 24.6502 159.327 31.2708 149.307 23.2315C149.307 23.2315 145.013 22.2043 145.49 26.4604C145.968 30.7165 141.673 32.8202 141.673 32.8202Z" fill="#646464"/>
<path d="M155.366 137.597C155.376 136.714 155.192 135.839 154.828 135.035C154.464 134.23 153.928 133.515 153.258 132.941C152.589 132.366 151.802 131.946 150.952 131.709C150.103 131.473 149.213 131.426 148.343 131.571L141.037 119.863L132.855 122.578L143.405 138.966C143.746 140.414 144.605 141.686 145.819 142.541C147.033 143.397 148.518 143.776 149.992 143.607C151.467 143.438 152.828 142.733 153.819 141.626C154.809 140.518 155.36 139.085 155.366 137.597Z" fill="#FDD9D6"/>
<path d="M136.495 133.907L123.277 107.011L123.289 106.945C123.342 106.648 128.663 77.0392 132.732 66.156C136.827 55.2039 142.432 53.0049 142.669 52.9167L142.787 52.8726L147.813 57.7043L140.851 104.279L148.356 126.742L136.495 133.907Z" fill="#2FA69A"/>
<path d="M462.999 0H437.406V25.6497H462.999V0Z" fill="#F1F1F1"/>
<path d="M262.713 99.8109H237.121V125.461H262.713V99.8109Z" fill="#F1F1F1"/>
<path d="M251.484 114.221H453.816V11.5613H251.484V114.221Z" fill="white"/>
<path d="M455.486 115.894H249.816V9.88843H455.486V115.894ZM253.155 112.548H452.148V13.234H253.155V112.548Z" fill="#E5E5E5"/>
<path d="M431.445 47.5723H275.773V52.7463H431.445V47.5723Z" fill="#E5E5E5"/>
<path d="M431.445 60.1201H275.773V65.2942H431.445V60.1201Z" fill="#E5E5E5"/>
<path d="M431.442 78.6473H402.512V83.1375H431.442V78.6473Z" fill="#2FA69A"/>
<path d="M212.527 278.977H0.556353C0.408799 278.977 0.267288 278.919 0.162951 278.814C0.0586151 278.71 0 278.568 0 278.42C0 278.272 0.0586151 278.13 0.162951 278.026C0.267288 277.921 0.408799 277.862 0.556353 277.862H212.527C212.674 277.862 212.816 277.921 212.92 278.026C213.024 278.13 213.083 278.272 213.083 278.42C213.083 278.568 213.024 278.71 212.92 278.814C212.816 278.919 212.674 278.977 212.527 278.977Z" fill="#CBCBCB"/>
</g>
<defs>
<clipPath id="clip0_2841_11689">
<rect width="463" height="279" fill="white"/>
</clipPath>
</defs>
</svg>
