<svg width="453" height="309" viewBox="0 0 453 309" fill="none" xmlns="http://www.w3.org/2000/svg">
<g clip-path="url(#clip0_2841_11813)">
<path d="M206.859 309H16.9754C12.4748 308.995 8.15998 307.207 4.97757 304.028C1.79517 300.849 0.0050802 296.538 0 292.042V16.9576C0.0050802 12.4617 1.79517 8.15145 4.97757 4.97238C8.15998 1.79331 12.4748 0.00507487 16.9754 0H206.859C211.359 0.00506858 215.674 1.7933 218.856 4.97237C222.039 8.15144 223.829 12.4617 223.834 16.9576V292.042C223.829 296.538 222.039 300.849 218.856 304.028C215.674 307.207 211.359 308.995 206.859 309Z" fill="#808285"/>
<path d="M207.195 298.181H16.643C15.2556 298.179 13.9256 297.628 12.9446 296.648C11.9636 295.668 11.4117 294.339 11.4102 292.953V16.0467C11.4117 14.6608 11.9636 13.3321 12.9446 12.3521C13.9256 11.3722 15.2556 10.8209 16.643 10.8193H207.195C208.582 10.8209 209.912 11.3722 210.893 12.3521C211.874 13.3321 212.426 14.6608 212.427 16.0467V292.953C212.426 294.339 211.874 295.668 210.893 296.648C209.912 297.628 208.582 298.179 207.195 298.181Z" fill="white"/>
<path d="M111.194 6.63589C111.992 6.63589 112.638 5.99002 112.638 5.19331C112.638 4.3966 111.992 3.75073 111.194 3.75073C110.397 3.75073 109.75 4.3966 109.75 5.19331C109.75 5.99002 110.397 6.63589 111.194 6.63589Z" fill="white"/>
<path d="M162.747 127.925L156.439 109.052L156.332 108.723L182.897 91.9608L184.31 93.8619L191.708 103.814L189.004 111.864L182.014 132.661L181.707 133.575L194.652 143.189C195.165 144.134 195.591 144.996 195.938 145.788C199.802 154.584 194.082 154.185 194.082 154.185L167.755 142.912L162.747 127.925Z" fill="#FFB8B8"/>
<path d="M176.68 131.438L175.52 127.964L169.824 110.908L168.637 107.353L167.641 104.378L180.63 96.1792L194.206 87.6154L203.017 99.4687L200.346 107.417L199.048 111.278L197.042 117.252L193.016 129.229L205.961 138.843C206.94 140.559 207.713 142.385 208.264 144.282C208.489 145.073 208.596 145.894 208.581 146.717C208.602 147.138 208.534 147.559 208.38 147.951C208.226 148.344 207.991 148.7 207.689 148.995C207.388 149.29 207.027 149.518 206.631 149.664C206.234 149.81 205.812 149.869 205.391 149.84L179.064 138.567L176.68 131.438Z" fill="#FFB8B8"/>
<path opacity="0.15" d="M175.446 132.208L173.918 116.119L181.531 111.996L182.029 112.914L175.023 116.708L176.44 131.623L192.005 142.271L191.415 143.133L175.446 132.208Z" fill="#808285"/>
<path opacity="0.15" d="M192.055 131.669L191.434 132.509L207.142 144.102L207.763 143.263L192.055 131.669Z" fill="#808285"/>
<path d="M191.117 147.439L112.095 91.9457L32.2656 146.922L110.904 180.094L191.117 147.439Z" fill="white"/>
<path d="M134.542 100.336L161.152 74.3466L208.742 71.1346L267.899 127.565L311.001 151.129L298.858 186.799L246.835 162.13C236.244 161.353 229.428 157.842 225.118 154.149C223.636 152.881 222.3 151.452 221.135 149.888C219.86 148.23 218.864 146.374 218.189 144.394L197.045 117.252L192.685 111.65L189.862 108.026L180.633 96.1793L179.969 95.3277L164.29 94.913L156.13 105.614L150.398 113.124C150.265 115.769 149.308 118.306 147.663 120.383C142.523 126.628 132.102 125.409 132.102 125.409L134.542 100.336Z" fill="#FFB8B8"/>
<path d="M32.5721 146.871H32.629L65.2656 160.792L109.919 179.84C110.094 179.913 110.281 179.951 110.47 179.952C110.659 179.953 110.847 179.917 111.022 179.845L157.092 160.752L190.53 146.894L190.581 146.871H190.638C191.166 146.871 191.671 147.081 192.045 147.454C192.418 147.826 192.627 148.332 192.628 148.859V235.193C192.627 235.72 192.418 236.225 192.045 236.598C191.671 236.971 191.166 237.18 190.638 237.181H32.5721C32.0444 237.18 31.5386 236.971 31.1655 236.598C30.7925 236.225 30.5826 235.72 30.582 235.193V148.859C30.5826 148.332 30.7925 147.826 31.1655 147.454C31.5386 147.081 32.0444 146.871 32.5721 146.871Z" fill="white"/>
<path d="M32.429 147.439C32.487 147.439 32.5436 147.421 32.5912 147.388L111.215 92.6897C111.454 92.524 111.738 92.4355 112.029 92.436C112.32 92.4365 112.604 92.526 112.843 92.6925L190.9 147.387C190.962 147.43 191.038 147.447 191.112 147.434C191.186 147.421 191.252 147.379 191.295 147.317C191.339 147.256 191.356 147.18 191.343 147.106C191.33 147.032 191.288 146.966 191.227 146.922L113.17 92.2274C112.835 91.9944 112.438 91.8691 112.03 91.8684C111.623 91.8677 111.225 91.9917 110.89 92.2237L32.2663 146.922C32.2166 146.956 32.1793 147.006 32.1598 147.063C32.1402 147.12 32.1395 147.182 32.1576 147.24C32.1758 147.298 32.2119 147.348 32.2607 147.384C32.3095 147.419 32.3685 147.439 32.429 147.439L32.429 147.439Z" fill="#808285"/>
<path d="M186.439 149.378L111.951 94.231L36.8984 153.302L108.113 195.475L146.777 186.671L186.439 149.378Z" fill="#E6E6E6"/>
<path d="M143.513 221.523H180.312C180.767 221.523 181.204 221.343 181.527 221.021C181.849 220.7 182.031 220.263 182.031 219.808C182.032 219.353 181.852 218.916 181.53 218.594C181.209 218.271 180.772 218.089 180.317 218.088H143.513C143.057 218.088 142.62 218.269 142.298 218.59C141.975 218.912 141.794 219.348 141.793 219.803C141.792 220.258 141.973 220.695 142.294 221.018C142.616 221.34 143.052 221.522 143.508 221.523H143.513Z" fill="#2FA69A"/>
<path d="M167.11 214.139H180.313C180.769 214.139 181.206 213.959 181.528 213.637C181.851 213.316 182.032 212.88 182.033 212.424C182.033 211.969 181.853 211.532 181.532 211.21C181.21 210.887 180.774 210.706 180.318 210.704H167.11C166.655 210.704 166.218 210.885 165.895 211.206C165.573 211.528 165.391 211.964 165.391 212.419C165.39 212.874 165.57 213.311 165.892 213.634C166.213 213.956 166.65 214.138 167.105 214.139H167.11Z" fill="#2FA69A"/>
<path d="M110.907 180.094C111.186 180.094 111.463 180.04 111.722 179.934L157.661 160.893V101.29C157.661 100.763 157.451 100.258 157.078 99.8848C156.704 99.5121 156.199 99.3025 155.671 99.3019H67.5408C67.0132 99.3025 66.5074 99.5121 66.1343 99.8848C65.7613 100.258 65.5514 100.763 65.5508 101.29V160.934L65.6371 160.971L110.066 179.925C110.332 180.036 110.618 180.094 110.907 180.094Z" fill="white"/>
<path d="M110.008 180.055L65.4062 161.028V101.29C65.4069 100.725 65.6317 100.184 66.0315 99.7845C66.4312 99.3852 66.9731 99.1606 67.5384 99.1599H155.669C156.234 99.1606 156.776 99.3852 157.176 99.7845C157.575 100.184 157.8 100.725 157.801 101.29V160.988L111.774 180.066C111.207 180.296 110.572 180.292 110.008 180.055H110.008ZM157.232 101.29C157.232 100.876 157.067 100.479 156.774 100.186C156.481 99.8931 156.083 99.7284 155.669 99.7279H67.5384C67.1239 99.7284 66.7264 99.8931 66.4333 100.186C66.1402 100.479 65.9753 100.876 65.9748 101.29V160.653L110.23 179.533C110.654 179.71 111.131 179.713 111.557 179.54L157.232 160.608L157.232 101.29Z" fill="#808285"/>
<path d="M31.0078 148.859V235.193C31.0084 235.72 31.2183 236.225 31.5913 236.598C31.9644 236.971 32.4702 237.18 32.9979 237.181H191.064C191.591 237.18 192.097 236.971 192.47 236.598C192.843 236.225 193.053 235.72 193.054 235.193V148.859C193.053 148.332 192.843 147.826 192.47 147.454C192.097 147.081 191.591 146.871 191.064 146.871H191.007L190.956 146.894L157.517 160.752L111.448 179.845C111.273 179.917 111.085 179.953 110.896 179.952C110.707 179.951 110.519 179.913 110.345 179.84L65.6914 160.792L33.0548 146.871H32.9979C32.4702 146.871 31.9644 147.081 31.5913 147.454C31.2183 147.826 31.0084 148.332 31.0078 148.859ZM31.5764 148.859C31.5773 148.492 31.7195 148.14 31.9737 147.876C32.2278 147.611 32.5743 147.455 32.9409 147.439L65.6914 161.408L110.12 180.362C110.614 180.569 111.171 180.572 111.667 180.371L157.517 161.366L191.118 147.439C191.485 147.454 191.832 147.61 192.087 147.874C192.342 148.139 192.485 148.492 192.485 148.859V235.193C192.485 235.569 192.335 235.93 192.069 236.197C191.802 236.463 191.441 236.613 191.064 236.613H32.9979C32.6209 236.613 32.2594 236.463 31.9929 236.197C31.7264 235.93 31.5766 235.569 31.5764 235.193V148.859Z" fill="#808285"/>
<path d="M75.2548 121.582H106.527C107.13 121.582 107.709 121.342 108.135 120.916C108.562 120.49 108.801 119.912 108.801 119.31C108.801 118.707 108.562 118.129 108.135 117.703C107.709 117.277 107.13 117.038 106.527 117.038H75.2548C74.6516 117.038 74.0731 117.277 73.6466 117.703C73.2201 118.129 72.9805 118.707 72.9805 119.31C72.9805 119.912 73.2201 120.49 73.6466 120.916C74.0731 121.342 74.6516 121.582 75.2548 121.582Z" fill="#2FA69A"/>
<path d="M75.2743 111.926H90.3418C90.945 111.926 91.5234 111.686 91.95 111.26C92.3765 110.834 92.6161 110.256 92.6161 109.654C92.6161 109.051 92.3765 108.473 91.95 108.047C91.5234 107.621 90.945 107.382 90.3418 107.382H75.2743C74.6711 107.382 74.0927 107.621 73.6661 108.047C73.2396 108.473 73 109.051 73 109.654C73 110.256 73.2396 110.834 73.6661 111.26C74.0927 111.686 74.6711 111.926 75.2743 111.926Z" fill="#2FA69A"/>
<path d="M88.2157 144.301H135.977C136.58 144.301 137.158 144.062 137.585 143.636C138.011 143.21 138.251 142.632 138.251 142.029C138.251 141.427 138.011 140.849 137.585 140.423C137.158 139.997 136.58 139.757 135.977 139.757H88.2157C87.6125 139.757 87.0341 139.997 86.6075 140.423C86.181 140.849 85.9414 141.427 85.9414 142.029C85.9414 142.632 86.181 143.21 86.6075 143.636C87.0341 144.062 87.6125 144.301 88.2157 144.301Z" fill="#CCCCCC"/>
<path d="M88.2157 154.809H135.977C136.58 154.809 137.158 154.57 137.585 154.143C138.011 153.717 138.251 153.14 138.251 152.537C138.251 151.934 138.011 151.357 137.585 150.93C137.158 150.504 136.58 150.265 135.977 150.265H88.2157C87.6125 150.265 87.0341 150.504 86.6075 150.93C86.181 151.357 85.9414 151.934 85.9414 152.537C85.9414 153.14 86.181 153.717 86.6075 154.143C87.0341 154.57 87.6125 154.809 88.2157 154.809Z" fill="#CCCCCC"/>
<path opacity="0.1" d="M199.051 111.278L208.537 110.731L246.439 157.393L233.049 155.346L225.118 154.15C223.636 152.881 222.3 151.452 221.135 149.888L212.322 147.275L208.267 144.282C208.521 145.254 199.051 111.278 199.051 111.278Z" fill="#808285"/>
<path d="M138.414 109.793C138.686 108.048 139.638 106.481 141.062 105.435C142.487 104.389 144.268 103.948 146.016 104.209L156.129 105.614L168.639 107.353L178.307 108.696L189.861 108.026L200.348 107.417L206.544 107.059L247.742 157.779L212.321 147.275L208.266 144.281L190.51 131.181C190.51 131.181 184.693 130.11 175.522 127.964C174.157 127.64 158.719 123.77 151.466 121.665C150.061 121.256 148.801 120.829 147.662 120.383C139.576 117.203 137.959 113.128 138.414 109.793Z" fill="#FFB8B8"/>
<path opacity="0.15" d="M144.207 116.13C144.243 116.126 147.852 115.676 149.393 113.036C150.431 111.257 150.327 108.862 149.083 105.917L150.046 105.511C151.426 108.779 151.509 111.49 150.292 113.569C148.482 116.661 144.495 117.148 144.326 117.167L144.207 116.13Z" fill="#808285"/>
<path opacity="0.15" d="M180.702 109.079L180.699 108.035L199.282 108.006L179.691 95.7703L180.245 94.8848L202.916 109.044L180.702 109.079Z" fill="#808285"/>
</g>
<path d="M316 153L452.5 214.5V270L302 189.5L316 153Z" fill="#2FA69A"/>
<defs>
<clipPath id="clip0_2841_11813">
<rect width="311" height="309" fill="white"/>
</clipPath>
</defs>
</svg>
