<svg width="15" height="10" viewBox="0 0 15 10" fill="none" xmlns="http://www.w3.org/2000/svg">
    <path d="M0.135666 1.37325L0.22376 1.47191L6.59746 8.80585C6.70967 8.93368 6.84807 9.03588 7.00327 9.10549C7.15847 9.17511 7.32683 9.21052 7.49692 9.20932C7.66685 9.20949 7.83488 9.17362 7.98992 9.10407C8.14497 9.03452 8.2835 8.93288 8.39637 8.80585L14.7657 1.486L14.8731 1.36443C14.9555 1.24432 14.9997 1.10217 15 0.95655C14.9976 0.856817 14.9756 0.758541 14.9352 0.667325C14.8948 0.576109 14.8368 0.493737 14.7646 0.424933C14.6923 0.356131 14.6072 0.302236 14.5142 0.266328C14.4211 0.230421 14.3218 0.213205 14.2221 0.215664H0.777885C0.678154 0.213205 0.578913 0.230421 0.485838 0.266328C0.392763 0.302236 0.307674 0.356131 0.235435 0.424933C0.163196 0.493737 0.105222 0.576109 0.0648254 0.667325C0.0244285 0.758541 0.00240007 0.856817 0 0.95655C0.000516244 1.10622 0.0479651 1.25196 0.135666 1.37325Z" fill="currentColor"/>
</svg>
