<svg viewBox="0 0 35 35" fill="none" xmlns="http://www.w3.org/2000/svg">
<path fill-rule="evenodd" clip-rule="evenodd" d="M16.6667 6.25C13.4438 6.25 10.8333 8.86042 10.8333 12.0833C10.8333 15.3063 13.4438 17.9167 16.6667 17.9167C19.8896 17.9167 22.5 15.3063 22.5 12.0833C22.5 8.86042 19.8896 6.25 16.6667 6.25ZM19.7292 12.0833C19.7292 10.3916 18.3584 9.02081 16.6667 9.02081C14.9751 9.02081 13.6042 10.3916 13.6042 12.0833C13.6042 13.775 14.9751 15.1458 16.6667 15.1458C18.3584 15.1458 19.7292 13.775 19.7292 12.0833ZM25.5626 25.2083C25.5626 24.275 20.998 22.1458 16.6667 22.1458C12.3355 22.1458 7.77091 24.275 7.77091 25.2083V26.8125H25.5626V25.2083ZM5 25.2083C5 21.3292 12.7729 19.375 16.6667 19.375C20.5604 19.375 28.3333 21.3292 28.3333 25.2083V29.5833H5V25.2083Z" fill="#0E766C"/>
</svg>
