<svg width="18" height="26" viewBox="0 0 18 26" fill="none" xmlns="http://www.w3.org/2000/svg">
<path fill-rule="evenodd" clip-rule="evenodd" d="M9 0.5C4.1625 0.5 0.25 4.4125 0.25 9.25C0.25 15.8125 9 25.5 9 25.5C9 25.5 17.75 15.8125 17.75 9.25C17.75 4.4125 13.8375 0.5 9 0.5ZM2.75 9.25C2.75 5.8 5.55 3 9 3C12.45 3 15.25 5.8 15.25 9.25C15.25 12.85 11.65 18.2375 9 21.6C6.4 18.2625 2.75 12.8125 2.75 9.25ZM5.875 9.25C5.875 7.52411 7.27411 6.125 9 6.125C10.1165 6.125 11.1481 6.72062 11.7063 7.6875C12.2646 8.65438 12.2646 9.84562 11.7063 10.8125C11.1481 11.7794 10.1165 12.375 9 12.375C7.27411 12.375 5.875 10.9759 5.875 9.25Z" fill="white"/>
</svg>
