<svg width="60" height="60" viewBox="0 0 60 60" fill="none" xmlns="http://www.w3.org/2000/svg">
<g id="room_24px">
<path id="icon/action/room_24px" fill-rule="evenodd" clip-rule="evenodd" d="M30 5C20.325 5 12.5 12.825 12.5 22.5C12.5 35.625 30 55 30 55C30 55 47.5 35.625 47.5 22.5C47.5 12.825 39.675 5 30 5ZM17.5 22.5C17.5 15.6 23.1 10 30 10C36.9 10 42.5 15.6 42.5 22.5C42.5 29.7 35.3 40.475 30 47.2C24.8 40.525 17.5 29.625 17.5 22.5ZM23.75 22.5C23.75 19.0482 26.5482 16.25 30 16.25C32.2329 16.25 34.2962 17.4412 35.4127 19.375C36.5291 21.3088 36.5291 23.6912 35.4127 25.625C34.2962 27.5588 32.2329 28.75 30 28.75C26.5482 28.75 23.75 25.9518 23.75 22.5Z" fill="currentColor"/>
</g>
</svg>
