<svg viewBox="0 0 24 24" fill="none" xmlns="http://www.w3.org/2000/svg">
<path fill-rule="evenodd" clip-rule="evenodd" d="M11.6667 0.25C8.44375 0.25 5.83333 2.86042 5.83333 6.08333C5.83333 9.30625 8.44375 11.9167 11.6667 11.9167C14.8896 11.9167 17.5 9.30625 17.5 6.08333C17.5 2.86042 14.8896 0.25 11.6667 0.25ZM14.7292 6.08331C14.7292 4.39165 13.3584 3.02081 11.6667 3.02081C9.97508 3.02081 8.60425 4.39165 8.60425 6.08331C8.60425 7.77498 9.97508 9.14581 11.6667 9.14581C13.3584 9.14581 14.7292 7.77498 14.7292 6.08331ZM20.5626 19.2083C20.5626 18.275 15.998 16.1458 11.6667 16.1458C7.3355 16.1458 2.77091 18.275 2.77091 19.2083V20.8125H20.5626V19.2083ZM0 19.2083C0 15.3292 7.77292 13.375 11.6667 13.375C15.5604 13.375 23.3333 15.3292 23.3333 19.2083V23.5833H0V19.2083Z" fill="#939598"/>
</svg>
