<svg width="30" height="30" viewBox="0 0 30 30" fill="none" xmlns="http://www.w3.org/2000/svg">
<path fill-rule="evenodd" clip-rule="evenodd" d="M0 15C0 6.72 6.72 0 15 0C23.28 0 30 6.72 30 15C30 23.28 23.28 30 15 30C6.72 30 0 23.28 0 15ZM16.5 21V24H13.5V21H16.5ZM15 27C8.385 27 3 21.615 3 15C3 8.385 8.385 3 15 3C21.615 3 27 8.385 27 15C27 21.615 21.615 27 15 27ZM9 12C9 8.685 11.685 6 15 6C18.315 6 21 8.685 21 12C21 13.9244 19.815 14.96 18.6611 15.9683C17.5665 16.9249 16.5 17.8569 16.5 19.5H13.5C13.5 16.7681 14.9132 15.6849 16.1557 14.7325C17.1304 13.9854 18 13.3188 18 12C18 10.35 16.65 9 15 9C13.35 9 12 10.35 12 12H9Z" fill="#FFFEFE"/>
</svg>
