<svg width="25" height="26" viewBox="0 0 25 26" fill="none" xmlns="http://www.w3.org/2000/svg">
<path d="M24.3944 21.4527L19.1136 16.1683C20.538 14.014 21.1116 11.4075 20.7234 8.85427C20.3351 6.30103 19.0126 3.98292 17.0123 2.3494C15.0119 0.715878 12.4763 -0.116665 9.89693 0.0131911C7.31761 0.143048 4.87839 1.22605 3.05222 3.05222C1.22605 4.87839 0.143048 7.31761 0.0131911 9.89693C-0.116665 12.4763 0.715878 15.0119 2.3494 17.0123C3.98292 19.0126 6.30103 20.3351 8.85427 20.7234C11.4075 21.1116 14.014 20.538 16.1683 19.1136L21.449 24.3944C21.8391 24.7845 22.3682 25.0036 22.9199 25.0036C23.4716 25.0036 24.0007 24.7845 24.3908 24.3944C24.7808 24.0043 25 23.4752 25 22.9235C25 22.3719 24.7808 21.8428 24.3908 21.4527H24.3944ZM3.16093 10.4425C3.16093 9.00351 3.58763 7.59687 4.38707 6.40043C5.18651 5.20398 6.32278 4.27147 7.6522 3.72081C8.98162 3.17014 10.4445 3.02606 11.8558 3.30679C13.2671 3.58751 14.5634 4.28044 15.5809 5.29793C16.5984 6.31542 17.2913 7.61179 17.5721 9.02309C17.8528 10.4344 17.7087 11.8972 17.1581 13.2267C16.6074 14.5561 15.6749 15.6924 14.4784 16.4918C13.282 17.2912 11.8754 17.7179 10.4364 17.7179C8.50791 17.7144 6.65941 16.9468 5.29576 15.5831C3.93211 14.2195 3.16446 12.371 3.16093 10.4425Z" fill="#FAFAFA"/>
</svg>
