<svg width="22" height="40" viewBox="0 0 22 40" fill="none" xmlns="http://www.w3.org/2000/svg">
<path d="M14.3828 13.2103V31.0955H3.49414L3.49414 13.2103C3.49414 12.6835 3.7083 12.1784 4.08951 11.8059C4.47071 11.4335 4.98774 11.2242 5.52685 11.2242H12.3273C12.5961 11.2213 12.8629 11.2705 13.1122 11.369C13.3614 11.4675 13.5882 11.6133 13.7794 11.798C13.9706 11.9827 14.1223 12.2026 14.2259 12.4451C14.3295 12.6875 14.3828 12.9476 14.3828 13.2103Z" fill="white" stroke="#939598" stroke-width="2" stroke-miterlimit="10"/>
<path d="M11.543 11.2299V5.77393H6.62109V11.2299H11.543Z" fill="white" stroke="#939598" stroke-width="2" stroke-miterlimit="10"/>
<path d="M9.00391 0V5.77394" stroke="#939598" stroke-width="2" stroke-miterlimit="10"/>
<path d="M17.9003 31.1182H0" stroke="#939598" stroke-width="2" stroke-miterlimit="10"/>
<path d="M14.7081 38.5542H3.48828" stroke="#939598" stroke-width="2" stroke-miterlimit="10"/>
<path d="M11.4582 31.1182H6.58203V38.5546H11.4582V31.1182Z" fill="white" stroke="#939598" stroke-width="2" stroke-miterlimit="10"/>
<path d="M8.29025 24.7192H3.48828" stroke="#939598" stroke-width="2" stroke-miterlimit="10"/>
<path d="M8.67852 18.365H3.48828" stroke="#939598" stroke-width="2" stroke-miterlimit="10"/>
</svg>
