<svg viewBox="0 0 23 41" fill="none" xmlns="http://www.w3.org/2000/svg">
<path d="M14.3828 13.4373L14.3828 31.6299H3.49415L3.49415 13.4373C3.49415 12.9015 3.70831 12.3877 4.08952 12.0088C4.47072 11.63 4.98775 11.4171 5.52685 11.4171H12.3273C12.5961 11.4141 12.8629 11.4642 13.1122 11.5643C13.3614 11.6645 13.5882 11.8128 13.7794 12.0007C13.9706 12.1886 14.1223 12.4123 14.2259 12.6589C14.3295 12.9055 14.3828 13.1701 14.3828 13.4373Z" fill="white" stroke="#939598" stroke-width="2" stroke-miterlimit="10"/>
<path d="M11.5469 11.4228V5.87305H6.625V11.4228H11.5469Z" fill="white" stroke="#939598" stroke-width="2" stroke-miterlimit="10"/>
<path d="M9.00391 0V5.87317" stroke="#939598" stroke-width="2" stroke-miterlimit="10"/>
<path d="M17.9003 31.6528H0" stroke="#939598" stroke-width="2" stroke-miterlimit="10"/>
<path d="M14.7081 39.2168H3.48828" stroke="#939598" stroke-width="2" stroke-miterlimit="10"/>
<path d="M11.4582 31.6528H6.58203V39.217H11.4582V31.6528Z" fill="white" stroke="#939598" stroke-width="2" stroke-miterlimit="10"/>
<path d="M8.29025 25.144H3.48828" stroke="#939598" stroke-width="2" stroke-miterlimit="10"/>
<path d="M8.67852 18.6807H3.48828" stroke="#939598" stroke-width="2" stroke-miterlimit="10"/>
<path d="M15.6347 23.7649C18.8071 23.7649 21.3788 21.209 21.3788 18.0563C21.3788 14.9035 18.8071 12.3477 15.6347 12.3477C12.4623 12.3477 9.89062 14.9035 9.89062 18.0563C9.89062 21.209 12.4623 23.7649 15.6347 23.7649Z" fill="white" stroke="#0E766C" stroke-width="1.83" stroke-miterlimit="10"/>
<path d="M16.2916 14.873H14.9727V21.2456H16.2916V14.873Z" fill="#0E766C"/>
<path d="M12.4258 17.4035V18.7144H18.8379V17.4035H12.4258Z" fill="#0E766C"/>
</svg>
