<svg width="15" height="27" viewBox="0 0 15 27" fill="none" xmlns="http://www.w3.org/2000/svg">
<path d="M9.80664 8.81824V20.7572H2.38255L2.38255 8.81824C2.38255 8.46663 2.52857 8.12943 2.78848 7.88081C3.0484 7.63219 3.40091 7.49252 3.76849 7.49252H8.40513C8.58844 7.49055 8.77034 7.52338 8.94029 7.58912C9.11024 7.65486 9.26487 7.7522 9.39522 7.8755C9.52557 7.9988 9.62905 8.14562 9.69967 8.30744C9.77029 8.46926 9.80665 8.64288 9.80664 8.81824Z" fill="white" stroke="#939598" stroke-width="2" stroke-miterlimit="10"/>
<path d="M7.87109 7.49625V3.85425H4.51527V7.49625H7.87109Z" fill="white" stroke="#939598" stroke-width="2" stroke-miterlimit="10"/>
<path d="M6.13965 0V3.85427" stroke="#939598" stroke-width="2" stroke-miterlimit="10"/>
<path d="M12.2048 20.7722H0" stroke="#939598" stroke-width="2" stroke-miterlimit="10"/>
<path d="M10.0278 25.7361H2.37793" stroke="#939598" stroke-width="2" stroke-miterlimit="10"/>
<path d="M7.81296 20.7722H4.48828V25.7362H7.81296V20.7722Z" fill="white" stroke="#939598" stroke-width="2" stroke-miterlimit="10"/>
<path d="M5.652 16.5007H2.37793" stroke="#939598" stroke-width="2" stroke-miterlimit="10"/>
<path d="M5.91673 12.2592H2.37793" stroke="#939598" stroke-width="2" stroke-miterlimit="10"/>
</svg>
