<svg viewBox="0 0 32 32" fill="none" xmlns="http://www.w3.org/2000/svg">
<path d="M16 22.5C18.7614 22.5 21 20.2614 21 17.5C21 14.7386 18.7614 12.5 16 12.5C13.2386 12.5 11 14.7386 11 17.5C11 20.2614 13.2386 22.5 16 22.5Z" stroke="#939598" stroke-width="2" stroke-linecap="round" stroke-linejoin="round"/>
<path d="M24.5 14.5C25.6645 14.499 26.8131 14.7696 27.8547 15.2903C28.8963 15.811 29.8021 16.5674 30.5001 17.4995" stroke="#939598" stroke-width="2" stroke-linecap="round" stroke-linejoin="round"/>
<path d="M1.5 17.4997C2.19805 16.5676 3.10387 15.8111 4.14549 15.2904C5.18711 14.7697 6.33582 14.499 7.50035 14.5" stroke="#939598" stroke-width="2" stroke-linecap="round" stroke-linejoin="round"/>
<path d="M8.80469 26.9999C9.46159 25.6506 10.4846 24.5133 11.7569 23.7176C13.0293 22.9219 14.4997 22.5 16.0004 22.5C17.501 22.5 18.9715 22.9219 20.2438 23.7176C21.5162 24.5132 22.5392 25.6506 23.1961 26.9998" stroke="#939598" stroke-width="2" stroke-linecap="round" stroke-linejoin="round"/>
<path d="M7.49925 14.5C6.7403 14.4999 5.99705 14.2838 5.3563 13.8771C4.71554 13.4703 4.20372 12.8897 3.88061 12.2029C3.5575 11.5162 3.43643 10.7517 3.53153 9.99874C3.62664 9.24577 3.934 8.5354 4.41773 7.95057C4.90145 7.36575 5.54157 6.93061 6.26334 6.69597C6.98511 6.46133 7.75874 6.43687 8.49389 6.62544C9.22904 6.81402 9.89537 7.20786 10.4151 7.76096C10.9348 8.31406 11.2864 9.0036 11.4289 9.74905" stroke="#939598" stroke-width="2" stroke-linecap="round" stroke-linejoin="round"/>
<path d="M20.5703 9.74931C20.7127 9.00374 21.0643 8.31407 21.584 7.76084C22.1038 7.20762 22.7702 6.81368 23.5054 6.62503C24.2406 6.43638 25.0144 6.4608 25.7362 6.69545C26.4581 6.9301 27.0983 7.36528 27.5821 7.95018C28.0659 8.53508 28.3733 9.24555 28.4684 9.99863C28.5635 10.7517 28.4424 11.5163 28.1192 12.2031C27.796 12.8899 27.2841 13.4706 26.6432 13.8774C26.0024 14.2841 25.259 14.5001 24.4999 14.5002" stroke="#939598" stroke-width="2" stroke-linecap="round" stroke-linejoin="round"/>
</svg>
