<svg width="19" height="19" viewBox="0 0 19 19" fill="none" xmlns="http://www.w3.org/2000/svg">
    <path d="M18.5397 16.3017L14.5263 12.2861C15.6089 10.6491 16.0448 8.66845 15.7498 6.72827C15.4547 4.78809 14.4496 3.02658 12.9293 1.78528C11.4091 0.543988 9.48195 -0.0886528 7.52167 0.0100238C5.56138 0.1087 3.70757 0.931664 2.31969 2.31935C0.9318 3.70704 0.108716 5.56057 0.0100253 7.52057C-0.0886657 9.48057 0.544068 11.4074 1.78554 12.9274C3.02702 14.4475 4.78878 15.4524 6.72925 15.7475C8.66971 16.0425 10.6506 15.6066 12.2879 14.5242L16.3013 18.537C16.5977 18.8335 16.9998 19 17.4191 19C17.8384 19 18.2405 18.8335 18.537 18.537C18.8334 18.2406 19 17.8386 19 17.4193C19 17.0001 18.8334 16.5981 18.537 16.3017H18.5397ZM2.40231 7.93512C2.40231 6.84167 2.7266 5.77278 3.33417 4.86362C3.94175 3.95445 4.80531 3.24584 5.81567 2.8274C6.82603 2.40896 7.9378 2.29947 9.01039 2.51279C10.083 2.72611 11.0682 3.25266 11.8415 4.02584C12.6148 4.79902 13.1414 5.78412 13.3548 6.85655C13.5681 7.92898 13.4586 9.04059 13.0401 10.0508C12.6216 11.061 11.9129 11.9245 11.0036 12.5319C10.0943 13.1394 9.02527 13.4637 7.93166 13.4637C6.46601 13.461 5.06115 12.8777 4.02478 11.8414C2.9884 10.8052 2.40499 9.40056 2.40231 7.93512Z" fill="currentColor"/>
</svg>
