<svg width="85" height="22" viewBox="0 0 85 22" fill="none" xmlns="http://www.w3.org/2000/svg">
<path d="M1.37523 4.59464C1.25927 4.33447 1.20493 4.05104 1.21646 3.76644C1.2009 3.49616 1.2556 3.22646 1.37523 2.9836C1.66458 2.80788 2.00217 2.72836 2.33953 2.75648C2.6699 2.72563 3.00116 2.80554 3.28114 2.9836C3.40042 3.22658 3.4551 3.49619 3.43992 3.76644C3.45103 4.05101 3.39672 4.33435 3.28114 4.59464C3.12953 4.74585 2.82312 4.82146 2.36191 4.82146C2.01727 4.85129 1.67198 4.77194 1.37493 4.59464" fill="#2FA69A"/>
<path d="M1.72461 5.84425H3.09301C3.54071 5.84356 3.98794 5.87348 4.43156 5.93379C4.47395 6.13154 4.49694 6.33295 4.5002 6.53516C4.49849 6.72251 4.47546 6.90905 4.43156 7.09118H4.02298C3.89285 7.07692 3.76117 7.0897 3.63622 7.12873C3.51126 7.16777 3.39572 7.23221 3.29685 7.31801C3.13253 7.57374 3.0606 7.87798 3.09301 8.18023" fill="#2FA69A"/>
<path d="M16.0263 11.7269H8.82467C8.90109 14.4026 9.91017 15.7405 11.8519 15.7405C13.0347 15.7084 14.1887 15.3685 15.2001 14.7545C15.5302 15.0334 15.7431 15.4264 15.7965 15.8551C14.5825 16.7084 13.1306 17.1578 11.6468 17.1395C10.6875 17.1808 9.74463 16.8801 8.98635 16.291C8.30917 15.7413 7.81032 15.003 7.55296 14.1696C7.2703 13.2132 7.13502 12.2194 7.15178 11.2223C7.15178 9.49446 7.5608 8.084 8.37885 6.99085C8.75751 6.46437 9.2601 6.03932 9.84214 5.75333C10.4242 5.46733 11.0677 5.32919 11.7159 5.35114C13.1235 5.35114 14.2094 5.81365 14.9736 6.73868C15.7631 7.73802 16.1696 8.98653 16.1198 10.2591C16.1191 10.7498 16.0879 11.2401 16.0263 11.7269ZM14.5124 10.1674C14.5513 9.25383 14.3113 8.35002 13.8244 7.57604C13.5987 7.24506 13.2911 6.97816 12.9317 6.80129C12.5722 6.62442 12.1731 6.54362 11.7732 6.56675C11.3582 6.55037 10.9459 6.63965 10.5748 6.82621C10.2038 7.01276 9.88615 7.29049 9.65177 7.63335C9.14723 8.34441 8.87203 9.29619 8.82618 10.4887H14.5124V10.1674Z" fill="#2FA69A"/>
<path d="M28.0212 8.99754V14.7543C27.9926 15.3971 28.0701 16.0401 28.2504 16.6577C28.1177 16.7784 27.9619 16.8712 27.7925 16.9303C27.6231 16.9894 27.4434 17.0138 27.2644 17.0019C26.7293 17.0019 26.4617 16.6578 26.4617 15.9697V9.52602C26.4617 8.56278 26.3394 7.87906 26.0946 7.47486C25.8499 7.07066 25.4065 6.86807 24.7644 6.86706C24.0681 6.88067 23.3846 7.05744 22.769 7.38317C22.1171 7.69891 21.5388 8.14822 21.0717 8.70193V16.8667C20.8227 16.9174 20.5689 16.9404 20.3149 16.9355C20.0533 16.9395 19.792 16.9165 19.5352 16.8667V0.145011L19.673 0.00746549H20.2461C20.3693 -0.0102182 20.4949 0.00363452 20.6112 0.0477388C20.7275 0.091843 20.8308 0.164755 20.9112 0.259636C21.0374 0.515606 21.0928 0.800644 21.0717 1.08522V7.11803C21.6021 6.59641 22.2293 6.18347 22.918 5.90242C23.6024 5.60546 24.3396 5.44952 25.0856 5.44392C26.11 5.44392 26.8554 5.77261 27.3217 6.42998C27.8177 7.19157 28.0624 8.08958 28.0212 8.99754Z" fill="#2FA69A"/>
<path d="M34.3513 15.6495H35.3389C35.43 15.8755 35.4768 16.1168 35.4767 16.3605C35.4824 16.5138 35.4747 16.6673 35.4538 16.8193C34.9039 16.9085 34.3479 16.9545 33.7909 16.9568C33.3087 16.9736 32.8392 16.8003 32.4835 16.4742C32.3079 16.302 32.171 16.0943 32.082 15.8649C31.993 15.6356 31.954 15.3899 31.9674 15.1443V0.145234L32.105 0.00768788H32.6781C32.8013 -0.00996707 32.9269 0.00390487 33.0432 0.0480072C33.1595 0.0921095 33.2627 0.165 33.3432 0.259858C33.4694 0.5158 33.5248 0.800861 33.5037 1.08545V14.6843C33.5031 15.3278 33.7856 15.6495 34.3513 15.6495Z" fill="#2FA69A"/>
<path d="M45.4514 6.56646C46.5216 7.65237 47.0568 9.21195 47.0568 11.2452C47.0568 13.2785 46.5216 14.838 45.4514 15.9239C44.5963 16.7058 43.4795 17.1393 42.3209 17.1393C41.1622 17.1393 40.0454 16.7058 39.1903 15.9239C38.1199 14.838 37.5848 13.2785 37.585 11.2452C37.5852 9.21195 38.1203 7.65237 39.1903 6.56646C40.0454 5.78463 41.1622 5.35107 42.3209 5.35107C43.4795 5.35107 44.5963 5.78463 45.4514 6.56646ZM42.3092 6.56646C41.8274 6.54208 41.3488 6.65802 40.9316 6.90025C40.5143 7.14247 40.1763 7.50056 39.9586 7.93109C39.434 8.95916 39.1776 10.1031 39.2132 11.2567C39.1757 12.4031 39.4323 13.5401 39.9586 14.5593C40.1671 14.909 40.4506 15.208 40.7887 15.4348C41.1267 15.6615 41.5109 15.8105 41.9135 15.8708C42.3161 15.9312 42.7271 15.9014 43.1168 15.7837C43.5065 15.6659 43.8652 15.4632 44.167 15.1901C45.008 14.3493 45.4285 13.0344 45.4285 11.2455C45.4633 10.0956 45.2069 8.95565 44.6832 7.93139C44.462 7.49859 44.1199 7.13925 43.6986 6.89698C43.2772 6.6547 42.7946 6.53989 42.3092 6.56646Z" fill="#2FA69A"/>
<path d="M56.6213 9.50317C56.6213 8.55502 56.5027 7.87462 56.2656 7.46198C56.147 7.25804 55.9732 7.09173 55.7643 6.98218C55.5553 6.87263 55.3196 6.82428 55.0844 6.84271C54.4873 6.85627 53.9049 7.0306 53.3986 7.34735C52.8132 7.69453 52.3026 8.15447 51.8964 8.70051V16.8632C51.3806 16.9548 50.8527 16.9548 50.3369 16.8632V5.7176L50.4745 5.55712H51.0708C51.194 5.53944 51.3196 5.55333 51.436 5.59749C51.5523 5.64165 51.6555 5.71464 51.7359 5.80959C51.8621 6.06553 51.9175 6.3506 51.8964 6.63518V7.09397C52.8596 5.97771 53.9757 5.41957 55.2446 5.41957C55.8137 5.3869 56.3778 5.54202 56.8501 5.8611C57.3225 6.18017 57.677 6.64553 57.8592 7.18567C59.0825 6.00827 60.321 5.41957 61.5748 5.41957C61.9871 5.39393 62.3993 5.47179 62.7738 5.64606C63.1483 5.82033 63.4733 6.08548 63.7192 6.41739C64.2247 7.163 64.4779 8.05106 64.4416 8.95118V14.7535C64.4106 15.398 64.4961 16.0428 64.6941 16.6569C64.4203 16.8914 64.0683 17.0142 63.708 17.001C63.1729 17.001 62.9053 16.657 62.9053 15.9688V9.47905C62.9053 8.53109 62.7869 7.85451 62.55 7.44931C62.4293 7.24803 62.2547 7.08448 62.046 6.97709C61.8373 6.8697 61.6028 6.82273 61.3688 6.8415C60.7747 6.85403 60.1939 7.02031 59.6832 7.32413C59.0829 7.66932 58.563 8.13843 58.1581 8.70021V16.8632C57.9015 16.9145 57.64 16.9375 57.3784 16.932C57.1243 16.9385 56.8703 16.9155 56.6216 16.8632L56.6213 9.50317Z" fill="#2FA69A"/>
<path d="M76.5966 16.2217C76.5334 16.3974 76.436 16.5588 76.31 16.6966C76.184 16.8343 76.032 16.9458 75.8627 17.0244C75.5127 16.8947 75.2043 16.6727 74.9701 16.3821C74.736 16.0914 74.5847 15.7428 74.5325 15.3732C73.3553 16.5506 72.1398 17.1392 70.8859 17.139C70.432 17.1639 69.9783 17.0873 69.5577 16.9148C69.1371 16.7422 68.7603 16.478 68.4547 16.1415C67.8833 15.5019 67.5724 14.6714 67.5833 13.8138C67.5833 12.5905 67.9654 11.6731 68.7295 11.0616C69.4937 10.4501 70.5411 10.1442 71.8717 10.144C72.7407 10.141 73.6081 10.2179 74.4631 10.3735V9.15794C74.4631 7.55261 73.7521 6.74984 72.3302 6.74964C71.2443 6.74964 69.9906 7.07068 68.569 7.71277C68.395 7.56226 68.2577 7.37397 68.1676 7.16228C68.0604 6.94834 68.0017 6.71344 67.9956 6.47424C69.3866 5.80624 70.9027 5.439 72.4451 5.39648C74.7844 5.39648 75.9541 6.66548 75.9541 9.20348V13.9281C75.9545 15.0443 76.1687 15.8089 76.5966 16.2217ZM69.1889 13.6071C69.1569 14.1804 69.3319 14.746 69.6821 15.201C69.85 15.396 70.0602 15.55 70.2967 15.6514C70.5332 15.7528 70.7897 15.7988 71.0467 15.7859C71.6763 15.7725 72.292 15.5988 72.8357 15.2812C73.4793 14.9167 74.0353 14.4157 74.4646 13.8134V11.543C73.6177 11.4213 72.7632 11.3601 71.9076 11.3596C71.1894 11.3174 70.4804 11.5375 69.9122 11.9789C69.6764 12.1779 69.4887 12.4278 69.3635 12.7099C69.2382 12.9919 69.1785 13.2987 69.1889 13.6071Z" fill="#2FA69A"/>
<path d="M84.8338 5.60317C84.8768 5.80686 84.8998 6.01427 84.9025 6.22244C84.9006 6.42308 84.8775 6.62295 84.8338 6.81878L81.9211 6.79586V14.7082C81.9211 15.335 82.2192 15.6484 82.8155 15.6484H84.5813C84.6725 15.8743 84.7193 16.1157 84.7191 16.3594C84.7249 16.5127 84.7173 16.6662 84.6962 16.8182C83.9851 16.9094 83.2688 16.9553 82.5519 16.9557C81.9741 16.9968 81.4007 16.8301 80.9351 16.4857C80.7482 16.318 80.6017 16.1102 80.5064 15.8779C80.411 15.6455 80.3694 15.3947 80.3846 15.144V6.79586L78.8022 6.81878C78.7571 6.62707 78.734 6.43084 78.7334 6.2339C78.7356 6.02191 78.7586 5.81065 78.8022 5.60317L80.3846 5.6261V3.14993C80.3624 2.864 80.422 2.57765 80.5565 2.32434C80.64 2.23007 80.7453 2.15777 80.8633 2.11379C80.9813 2.06982 81.1083 2.05552 81.2331 2.07217H81.7833L81.9211 2.20972V5.64992L84.8338 5.60317Z" fill="#2FA69A"/>
<path d="M3.08598 7.38734V16.7587C3.08598 18.3471 3.01794 19.3757 2.88184 19.8447C2.60946 20.8582 1.81518 21.5767 0.49901 22.0001C0.247986 21.7259 0.0755917 21.389 0 21.0251C0.50324 20.7852 0.928154 20.4076 1.22544 19.936C1.467 19.3945 1.57587 18.8033 1.54299 18.2113V8.18151C1.57553 7.87922 1.50348 7.57491 1.33885 7.31929C1.23998 7.23349 1.12444 7.16905 0.999482 7.13002C0.874526 7.09099 0.742851 7.0782 0.61272 7.09247H0.204141C0.160523 6.9103 0.137695 6.72377 0.136094 6.53645C0.139228 6.33426 0.162018 6.13286 0.204141 5.93508C0.647862 5.87476 1.09519 5.84484 1.54299 5.84554H1.72445C1.91166 5.83623 2.09857 5.86911 2.27136 5.94175C2.44416 6.01438 2.59843 6.1249 2.72277 6.26516C2.97713 6.58214 3.10637 6.98143 3.08598 7.38734ZM1.54329 15.6822C1.58925 15.6807 1.6385 15.6822 1.69252 15.6822H1.97575C2.00526 15.6484 2.02489 15.6071 2.03245 15.5628C2.02396 15.5148 2.00456 15.4693 1.97575 15.43C1.8307 15.426 1.68675 15.4228 1.54389 15.4204L1.54329 15.6822ZM1.54329 14.2562C1.58925 14.2562 1.6385 14.2562 1.69252 14.2562H1.97575C2.00529 14.2224 2.02491 14.1811 2.03245 14.1368C2.0239 14.0889 2.0045 14.0436 1.97575 14.0043C1.8307 14.0003 1.68675 13.9971 1.54389 13.9948L1.54329 14.2562ZM1.54329 12.8305C1.58925 12.8305 1.6385 12.8305 1.69252 12.8305H1.97575C2.0053 12.7967 2.02493 12.7554 2.03245 12.7111C2.02391 12.6632 2.00451 12.6179 1.97575 12.5786C1.8307 12.5744 1.68675 12.5712 1.54389 12.569L1.54329 12.8305ZM1.54329 11.4048C1.58925 11.4048 1.6385 11.4048 1.69252 11.4048H1.97575C2.0053 11.371 2.02493 11.3297 2.03245 11.2854C2.02391 11.2375 2.00451 11.1922 1.97575 11.1529C1.8307 11.1487 1.68675 11.1455 1.54389 11.1433L1.54329 11.4048ZM1.54329 9.97909C1.58925 9.97909 1.6385 9.97909 1.69252 9.97909H1.97575C2.0053 9.94529 2.02493 9.90397 2.03245 9.85971C2.02391 9.81179 2.00451 9.76646 1.97575 9.7272C1.8307 9.72302 1.68675 9.71983 1.54389 9.71764L1.54329 9.97909ZM1.54329 8.55338C1.58925 8.55338 1.6385 8.55338 1.69252 8.55338H1.97575C2.00528 8.51957 2.0249 8.47826 2.03245 8.434C2.02391 8.38609 2.00451 8.34076 1.97575 8.30149C1.8307 8.29731 1.68675 8.29414 1.54389 8.29195L1.54329 8.55338Z" fill="#2FA69A"/>
</svg>
