<svg width="155" height="40" viewBox="0 0 155 40" fill="none" xmlns="http://www.w3.org/2000/svg">
<path d="M2.5014 8.35388C2.29056 7.88085 2.19176 7.36553 2.21272 6.84806C2.18444 6.35665 2.28389 5.8663 2.5014 5.42473C3.02749 5.10524 3.64128 4.96066 4.25466 5.01178C4.85534 4.95569 5.45762 5.10097 5.96668 5.42473C6.18356 5.86651 6.28298 6.3567 6.25537 6.84806C6.27558 7.36548 6.17682 7.88063 5.96668 8.35388C5.69102 8.62882 5.13391 8.76629 4.29536 8.76629C3.66874 8.82053 3.04093 8.67625 2.50086 8.35388" fill="white"/>
<path d="M3.13574 10.625H5.62374C6.43774 10.6238 7.25088 10.6782 8.05746 10.7878C8.13455 11.1474 8.17635 11.5136 8.18227 11.8812C8.17915 12.2218 8.13728 12.561 8.05746 12.8922H7.31459C7.07799 12.8662 6.83858 12.8895 6.61139 12.9604C6.3842 13.0314 6.17413 13.1486 5.99436 13.3046C5.69559 13.7696 5.56481 14.3227 5.62374 14.8722" fill="white"/>
<path d="M29.138 21.321H16.0441C16.1831 26.186 18.0178 28.6185 21.5482 28.6185C23.6988 28.56 25.7969 27.9421 27.6359 26.8257C28.2359 27.3328 28.623 28.0473 28.7201 28.8269C26.5128 30.3783 23.8731 31.1954 21.1753 31.1621C19.431 31.2372 17.7168 30.6905 16.3381 29.6194C15.1069 28.6199 14.1999 27.2775 13.7319 25.7622C13.218 24.0234 12.9721 22.2164 13.0025 20.4035C13.0025 17.262 13.7462 14.6975 15.2336 12.71C15.922 11.7528 16.8358 10.98 17.8941 10.46C18.9524 9.93998 20.1225 9.68882 21.3009 9.72872C23.8603 9.72872 25.8346 10.5697 27.224 12.2515C28.6594 14.0685 29.3985 16.3385 29.3081 18.6523C29.3068 19.5445 29.25 20.4358 29.138 21.321ZM26.3854 18.4856C26.4561 16.8245 26.0198 15.1812 25.1345 13.774C24.7241 13.1722 24.165 12.6869 23.5114 12.3654C22.8579 12.0438 22.1323 11.8969 21.4051 11.9389C20.6506 11.9091 19.9008 12.0715 19.2262 12.4107C18.5516 12.7499 17.9741 13.2548 17.548 13.8782C16.6306 15.171 16.1302 16.9015 16.0469 19.0697H26.3854V18.4856Z" fill="white"/>
<path d="M50.9467 16.3591V26.826C50.8948 27.9946 51.0356 29.1638 51.3635 30.2867C51.1222 30.5062 50.839 30.6748 50.5309 30.7823C50.2228 30.8898 49.8963 30.9341 49.5707 30.9124C48.5978 30.9124 48.1113 30.2869 48.1113 29.0357V17.32C48.1113 15.5687 47.8888 14.3255 47.4439 13.5906C46.9989 12.8557 46.1927 12.4874 45.0253 12.4855C43.7592 12.5103 42.5166 12.8317 41.3974 13.4239C40.212 13.998 39.1605 14.8149 38.3113 15.8217V30.6667C37.8586 30.7588 37.3972 30.8008 36.9353 30.7918C36.4597 30.7991 35.9846 30.7572 35.5176 30.6667V0.263657L35.7682 0.0135736H36.8102C37.0341 -0.0185784 37.2625 0.00660822 37.474 0.0867977C37.6855 0.166987 37.8732 0.299555 38.0195 0.472065C38.2489 0.937464 38.3496 1.45571 38.3113 1.97313V12.9418C39.2756 11.9935 40.416 11.2427 41.6683 10.7317C42.9126 10.1917 44.253 9.9082 45.6093 9.89802C47.4718 9.89802 48.827 10.4956 49.6749 11.6909C50.5768 13.0756 51.0216 14.7083 50.9467 16.3591Z" fill="white"/>
<path d="M62.4552 28.4532H64.2508C64.4166 28.864 64.5017 29.3029 64.5014 29.7459C64.5117 30.0246 64.4978 30.3037 64.4598 30.58C63.46 30.7422 62.4491 30.8258 61.4362 30.8301C60.5595 30.8606 59.7059 30.5455 59.0593 29.9526C58.74 29.6395 58.4911 29.2618 58.3293 28.8448C58.1675 28.4279 58.0964 27.9812 58.1209 27.5346V0.263617L58.371 0.0135341H59.4131C59.6369 -0.0185658 59.8653 0.00665586 60.0768 0.0868418C60.2883 0.167028 60.476 0.299556 60.6224 0.472025C60.8518 0.937373 60.9526 1.45566 60.9141 1.97309V26.6982C60.913 27.8682 61.4267 28.4532 62.4552 28.4532Z" fill="white"/>
<path d="M82.6386 11.9383C84.5844 13.9127 85.5574 16.7483 85.5574 20.4451C85.5574 24.1419 84.5844 26.9775 82.6386 28.9519C81.0838 30.3734 79.0533 31.1617 76.9467 31.1617C74.84 31.1617 72.8095 30.3734 71.2547 28.9519C69.3085 26.9775 68.3356 24.1419 68.3359 20.4451C68.3363 16.7483 69.3092 13.9127 71.2547 11.9383C72.8095 10.5168 74.84 9.72852 76.9467 9.72852C79.0533 9.72852 81.0838 10.5168 82.6386 11.9383ZM76.9255 11.9383C76.0495 11.894 75.1793 12.1048 74.4207 12.5452C73.6621 12.9856 73.0475 13.6367 72.6516 14.4194C71.6979 16.2887 71.2317 18.3685 71.2964 20.4659C71.2281 22.5504 71.6947 24.6177 72.6516 26.4708C73.0307 27.1065 73.5462 27.6501 74.1608 28.0624C74.7755 28.4748 75.474 28.7456 76.206 28.8553C76.938 28.965 77.6852 28.9109 78.3938 28.6968C79.1023 28.4828 79.7545 28.1142 80.3034 27.6175C81.8324 26.0889 82.5969 23.6982 82.5969 20.4457C82.6601 18.355 82.194 16.2823 81.2417 14.42C80.8395 13.6331 80.2177 12.9797 79.4516 12.5392C78.6854 12.0987 77.808 11.89 76.9255 11.9383Z" fill="white"/>
<path d="M102.946 17.2791C102.946 15.5552 102.73 14.3181 102.299 13.5678C102.083 13.197 101.767 12.8947 101.387 12.6955C101.007 12.4963 100.579 12.4084 100.151 12.4419C99.0657 12.4666 98.0068 12.7835 97.0862 13.3594C96.0219 13.9907 95.0935 14.8269 94.355 15.8197V30.6609C93.4171 30.8275 92.4573 30.8275 91.5195 30.6609V10.3962L91.7696 10.1045H92.8539C93.0778 10.0723 93.3063 10.0976 93.5178 10.1779C93.7293 10.2582 93.917 10.3909 94.0632 10.5635C94.2927 11.0289 94.3934 11.5472 94.355 12.0646V12.8988C96.1063 10.8692 98.1355 9.85439 100.443 9.85439C101.477 9.79499 102.503 10.077 103.362 10.6572C104.221 11.2373 104.865 12.0834 105.196 13.0655C107.421 10.9247 109.672 9.85439 111.952 9.85439C112.702 9.80777 113.451 9.94933 114.132 10.2662C114.813 10.583 115.404 11.0651 115.851 11.6686C116.77 13.0243 117.23 14.6389 117.164 16.2755V26.8252C117.108 27.997 117.263 29.1693 117.623 30.2858C117.126 30.7122 116.486 30.9355 115.831 30.9116C114.858 30.9116 114.371 30.286 114.371 29.0348V17.2352C114.371 15.5117 114.156 14.2815 113.725 13.5448C113.506 13.1789 113.188 12.8815 112.809 12.6862C112.429 12.491 112.003 12.4056 111.577 12.4397C110.497 12.4625 109.441 12.7648 108.513 13.3172C107.421 13.9448 106.476 14.7978 105.74 15.8192V30.6609C105.273 30.7542 104.798 30.7961 104.322 30.786C103.86 30.7979 103.398 30.756 102.946 30.6609L102.946 17.2791Z" fill="white"/>
<path d="M139.265 29.4948C139.15 29.8141 138.973 30.1076 138.744 30.3581C138.515 30.6086 138.239 30.8111 137.931 30.9541C137.295 30.7183 136.734 30.3147 136.308 29.7862C135.882 29.2577 135.607 28.624 135.512 27.952C133.372 30.0927 131.162 31.1629 128.882 31.1625C128.057 31.2078 127.232 31.0685 126.467 30.7548C125.703 30.4411 125.018 29.9608 124.462 29.3489C123.423 28.1859 122.858 26.6759 122.877 25.1166C122.877 22.8925 123.572 21.2245 124.962 20.1127C126.351 19.0008 128.255 18.4447 130.675 18.4443C132.255 18.4389 133.832 18.5787 135.386 18.8617V16.6515C135.386 13.7327 134.094 12.2731 131.508 12.2728C129.534 12.2728 127.254 12.8565 124.67 14.0239C124.353 13.7503 124.104 13.4079 123.94 13.023C123.745 12.6341 123.638 12.207 123.627 11.7721C126.156 10.5575 128.913 9.8898 131.717 9.8125C135.97 9.8125 138.097 12.1198 138.097 16.7343V25.3245C138.098 27.354 138.487 28.7441 139.265 29.4948ZM125.797 24.7409C125.739 25.7832 126.057 26.8116 126.693 27.6389C126.999 27.9934 127.381 28.2735 127.811 28.4578C128.241 28.6421 128.707 28.7257 129.175 28.7023C130.319 28.678 131.439 28.3622 132.427 27.7847C133.597 27.122 134.608 26.2111 135.389 25.116V20.988C133.849 20.7668 132.295 20.6553 130.74 20.6545C129.434 20.5779 128.145 20.978 127.112 21.7805C126.683 22.1423 126.342 22.5967 126.114 23.1095C125.886 23.6223 125.778 24.1801 125.797 24.7409Z" fill="white"/>
<path d="M154.242 10.1881C154.32 10.5585 154.362 10.9356 154.367 11.3141C154.363 11.6789 154.321 12.0423 154.242 12.3983L148.946 12.3566V26.7426C148.946 27.8823 149.488 28.4521 150.572 28.4521H153.783C153.949 28.8629 154.034 29.3018 154.034 29.7448C154.044 30.0235 154.03 30.3027 153.992 30.579C152.699 30.7449 151.397 30.8284 150.093 30.829C149.043 30.9037 148 30.6007 147.153 29.9746C146.814 29.6695 146.547 29.2917 146.374 28.8693C146.201 28.447 146.125 27.9909 146.153 27.5351V12.3566L143.275 12.3983C143.193 12.0497 143.152 11.693 143.15 11.3349C143.154 10.9495 143.196 10.5653 143.275 10.1881L146.153 10.2298V5.72768C146.112 5.2078 146.221 4.68716 146.465 4.22661C146.617 4.0552 146.808 3.92374 147.023 3.84379C147.237 3.76384 147.468 3.73785 147.695 3.76812H148.696L148.946 4.01821V10.2731L154.242 10.1881Z" fill="white"/>
<path d="M5.61087 13.4311V30.4699C5.61087 33.3578 5.48715 35.2281 5.23971 36.0808C4.74446 37.9236 3.30032 39.2299 0.90729 39.9997C0.450883 39.5012 0.137439 38.8887 0 38.2269C0.91498 37.7908 1.68755 37.1042 2.22807 36.2468C2.66728 35.2623 2.86521 34.1873 2.80544 33.1109V14.875C2.8646 14.3254 2.7336 13.7721 2.43427 13.3074C2.2545 13.1514 2.04443 13.0342 1.81724 12.9632C1.59004 12.8923 1.35064 12.869 1.11403 12.895H0.371164C0.29186 12.5637 0.250355 12.2246 0.247443 11.884C0.253142 11.5164 0.294577 11.1502 0.371164 10.7906C1.17793 10.6809 1.99125 10.6265 2.80544 10.6278H3.13536C3.47574 10.6109 3.81557 10.6707 4.12975 10.8027C4.44392 10.9348 4.72441 11.1357 4.95048 11.3908C5.41296 11.9671 5.64793 12.6931 5.61087 13.4311ZM2.80598 28.5126C2.88954 28.5099 2.97908 28.5126 3.0773 28.5126H3.59226C3.64593 28.4511 3.6816 28.376 3.69536 28.2956C3.67992 28.2082 3.64465 28.1256 3.59226 28.0541C3.32854 28.0468 3.06681 28.041 2.80706 28.0367L2.80598 28.5126ZM2.80598 25.9199C2.88954 25.9199 2.97908 25.9199 3.0773 25.9199H3.59226C3.64598 25.8584 3.68166 25.7833 3.69536 25.7028C3.6798 25.6157 3.64454 25.5333 3.59226 25.4619C3.32854 25.4547 3.06681 25.4489 2.80706 25.4445L2.80598 25.9199ZM2.80598 23.3277C2.88954 23.3277 2.97908 23.3277 3.0773 23.3277H3.59226C3.646 23.2663 3.68169 23.1911 3.69536 23.1106C3.67982 23.0235 3.64456 22.9411 3.59226 22.8697C3.32854 22.8621 3.06681 22.8563 2.80706 22.8524L2.80598 23.3277ZM2.80598 20.7355C2.88954 20.7355 2.97908 20.7355 3.0773 20.7355H3.59226C3.646 20.6741 3.68169 20.599 3.69536 20.5185C3.67982 20.4313 3.64456 20.3489 3.59226 20.2775C3.32854 20.2699 3.06681 20.2641 2.80706 20.2602L2.80598 20.7355ZM2.80598 18.1433C2.88954 18.1433 2.97908 18.1433 3.0773 18.1433H3.59226C3.646 18.0819 3.68169 18.0068 3.69536 17.9263C3.67982 17.8392 3.64456 17.7568 3.59226 17.6854C3.32854 17.6778 3.06681 17.672 2.80706 17.668L2.80598 18.1433ZM2.80598 15.5512C2.88954 15.5512 2.97908 15.5512 3.0773 15.5512H3.59226C3.64595 15.4897 3.68163 15.4146 3.69536 15.3341C3.67982 15.247 3.64456 15.1646 3.59226 15.0932C3.32854 15.0856 3.06681 15.0798 2.80706 15.0758L2.80598 15.5512Z" fill="white"/>
</svg>
