<svg width="290" height="58" viewBox="0 0 290 58" fill="none" xmlns="http://www.w3.org/2000/svg">
<path d="M39.5631 30.9934H20.562C20.7637 38.0532 23.4263 41.5831 28.5498 41.5831C31.3737 41.5831 34.3187 40.7158 37.3847 38.9811C38.2722 39.7475 38.7966 40.7158 38.958 41.8857C35.7306 44.1448 32.0797 45.2745 28.0051 45.2745C25.1408 45.2745 22.801 44.5281 20.9856 43.0355C19.1702 41.5428 17.9095 39.677 17.2035 37.438C16.4975 35.199 16.1445 32.6071 16.1445 29.662C16.1445 25.1034 17.2237 21.3818 19.382 18.4974C21.5403 15.6129 24.4752 14.1707 28.1867 14.1707C31.8981 14.1707 34.7624 15.391 36.7795 17.8317C38.7966 20.2724 39.8052 23.3686 39.8052 27.1205C39.8052 28.4114 39.7245 29.7024 39.5631 30.9934ZM35.5693 26.8785C35.5693 24.0949 34.9641 21.8155 33.7539 20.0405C32.5436 18.2654 30.7383 17.3779 28.3379 17.3779C25.9376 17.3779 24.0718 18.3158 22.7405 20.1918C21.4092 22.0676 20.683 24.5789 20.562 27.7256H35.5693V26.8785Z" fill="white"/>
<path d="M71.1086 23.7211V38.91C71.1086 41.1691 71.3103 42.8433 71.7137 43.9325C71.1086 44.5377 70.2413 44.8403 69.1117 44.8403C67.6997 44.8403 66.9937 43.9325 66.9937 42.1171V25.1129C66.9937 22.5714 66.671 20.7661 66.0255 19.697C65.38 18.628 64.2101 18.0935 62.5157 18.0935C60.8214 18.0935 59.0665 18.5473 57.2511 19.455C55.4357 20.3627 53.9431 21.5225 52.7732 22.9345V44.4772C52.2487 44.5982 51.583 44.6587 50.7762 44.6587C49.9694 44.6587 49.2835 44.5982 48.7188 44.4772V0.363079L49.0818 0H50.5947C51.4822 0 52.0671 0.221914 52.3495 0.665677C52.6319 1.10938 52.7732 1.83553 52.7732 2.84415V18.7591C54.1045 17.4278 55.7282 16.3587 57.6444 15.5518C59.5607 14.7451 61.4669 14.3416 63.3629 14.3416C66.0659 14.3416 68.0325 15.209 69.2629 16.9437C70.4934 18.6784 71.1086 20.9375 71.1086 23.7211Z" fill="white"/>
<path d="M87.8676 41.27H90.4697C90.7117 41.8751 90.8327 42.5004 90.8327 43.1458C90.8327 43.7913 90.8125 44.1948 90.7722 44.3561C89.2392 44.5982 87.7768 44.7192 86.385 44.7192C84.9932 44.7192 83.8434 44.2956 82.9358 43.4484C82.0281 42.6012 81.5742 41.4313 81.5742 39.9387V0.363079L81.9373 0H83.4502C84.3377 0 84.9226 0.221914 85.205 0.665677C85.4874 1.10938 85.6286 1.83553 85.6286 2.84415V38.7284C85.6286 40.4228 86.3749 41.27 87.8676 41.27Z" fill="white"/>
<path d="M117.291 17.3779C120.115 20.2422 121.527 24.3571 121.527 29.7226C121.527 35.0881 120.115 39.203 117.291 42.0672C115.153 44.2054 112.4 45.2745 109.031 45.2745C105.663 45.2745 102.909 44.2054 100.771 42.0672C97.9471 39.203 96.5352 35.0881 96.5352 29.7226C96.5352 24.3571 97.9471 20.2422 100.771 17.3779C102.909 15.2397 105.663 14.1707 109.031 14.1707C112.4 14.1707 115.153 15.2397 117.291 17.3779ZM109.001 17.3779C106.177 17.3779 104.109 18.5781 102.798 20.9784C101.487 23.3788 100.832 26.3036 100.832 29.7528C100.832 33.202 101.487 36.1067 102.798 38.4667C104.109 40.8267 106.197 42.0068 109.061 42.0068C110.998 42.0068 112.611 41.3814 113.902 40.1308C116.121 37.912 117.231 34.4426 117.231 29.7226C117.231 26.2935 116.575 23.3788 115.264 20.9784C113.953 18.5781 111.865 17.3779 109.001 17.3779Z" fill="white"/>
<path d="M146.538 24.9421C146.538 22.4408 146.225 20.6456 145.6 19.5564C144.974 18.4671 143.936 17.9225 142.483 17.9225C141.031 17.9225 139.548 18.3663 138.036 19.2538C136.523 20.1413 135.201 21.3314 134.072 22.8241V44.3668C133.507 44.4878 132.821 44.5483 132.014 44.5483C131.208 44.5483 130.522 44.4878 129.957 44.3668V14.9574L130.32 14.5338H131.893C132.781 14.5338 133.366 14.7557 133.648 15.1995C133.931 15.6432 134.072 16.3694 134.072 17.3779V18.5882C136.613 15.6432 139.558 14.1707 142.907 14.1707C146.255 14.1707 148.555 15.7239 149.805 18.8303C153.033 15.7239 156.3 14.1707 159.608 14.1707C162.11 14.1707 163.996 15.0482 165.266 16.803C166.537 18.5579 167.173 20.7868 167.173 23.4897V38.7996C167.173 41.0587 167.394 42.7329 167.838 43.8221C167.152 44.4273 166.285 44.7299 165.236 44.7299C163.824 44.7299 163.118 43.8221 163.118 42.0068V24.8816C163.118 22.3804 162.806 20.5952 162.18 19.5261C161.555 18.457 160.516 17.9225 159.064 17.9225C157.612 17.9225 156.129 18.3462 154.616 19.1933C153.103 20.0405 151.762 21.2507 150.592 22.8241V44.3668C150.068 44.4878 149.382 44.5483 148.535 44.5483C147.687 44.5483 147.022 44.4878 146.538 44.3668V24.9421Z" fill="white"/>
<path d="M199.352 42.7328C198.949 43.7414 198.303 44.4474 197.416 44.8508C195.479 44.0843 194.309 42.632 193.906 40.4939C190.799 43.6002 187.592 45.1534 184.284 45.1534C181.541 45.1534 179.403 44.276 177.87 42.5211C176.337 40.7662 175.57 38.7188 175.57 36.379C175.57 33.1516 176.579 30.7311 178.596 29.1174C180.613 27.5037 183.376 26.6969 186.886 26.6969C189.266 26.6969 191.546 26.8986 193.724 27.302V24.0949C193.724 19.8589 191.848 17.741 188.097 17.741C185.232 17.741 181.924 18.5881 178.172 20.2825C177.769 19.9598 177.416 19.4757 177.113 18.8302C176.811 18.1847 176.66 17.5796 176.66 17.0148C180.895 15.1187 184.809 14.1707 188.399 14.1707C194.571 14.1707 197.658 17.519 197.658 24.2158V36.6816C197.658 39.6265 198.222 41.6437 199.352 42.7328ZM179.806 35.8344C179.806 37.6095 180.24 39.0113 181.107 40.0401C181.975 41.0688 183.175 41.5831 184.708 41.5831C186.241 41.5831 187.814 41.1394 189.428 40.2518C191.041 39.3643 192.474 38.0734 193.724 36.379V30.3882C191.465 30.0655 189.216 29.9041 186.977 29.9041C184.738 29.9041 182.983 30.4487 181.712 31.538C180.442 32.6272 179.806 34.0594 179.806 35.8344Z" fill="white"/>
<path d="M220.231 14.6832C220.352 15.2883 220.413 15.8329 220.413 16.317C220.413 16.8011 220.352 17.3256 220.231 17.8903L212.546 17.8298V38.7069C212.546 40.3609 213.333 41.1879 214.906 41.1879H219.566C219.808 41.793 219.929 42.4183 219.929 43.0638C219.929 43.7093 219.909 44.1127 219.868 44.274C217.972 44.5162 216.086 44.6371 214.21 44.6371C212.334 44.6371 210.912 44.2236 209.944 43.3967C208.976 42.5696 208.492 41.3896 208.492 39.8566V17.8298L204.316 17.8903C204.195 17.3659 204.135 16.8516 204.135 16.3473C204.135 15.843 204.195 15.2883 204.316 14.6832L208.492 14.7436V8.20822C208.492 7.19973 208.643 6.47358 208.946 6.02975C209.248 5.58598 209.843 5.36414 210.731 5.36414H212.183L212.546 5.72721V14.8042L220.231 14.6832Z" fill="white"/>
<path d="M226.748 44.2509C226.425 43.7265 226.264 42.849 226.264 41.6186C226.264 40.3881 226.425 39.551 226.748 39.1073C227.474 38.7038 228.493 38.5022 229.804 38.5022C231.115 38.5022 232.093 38.7038 232.739 39.1073C233.061 39.551 233.223 40.3881 233.223 41.6186C233.223 42.849 233.061 43.7265 232.739 44.2509C232.174 44.6543 231.216 44.856 229.864 44.856C228.513 44.856 227.474 44.6543 226.748 44.2509Z" fill="white"/>
<path d="M258.896 25.184C258.896 24.942 258.896 24.5184 258.896 23.9133C258.896 23.3082 258.745 22.5114 258.442 21.523C258.14 20.5346 257.464 19.6168 256.415 18.7697C255.366 17.9225 254.015 17.4989 252.361 17.4989C250.061 17.4989 248.215 18.5881 246.824 20.7666C245.432 22.9451 244.736 25.9808 244.736 29.8739C244.736 33.7668 245.422 36.7017 246.793 38.6785C248.165 40.6553 250.041 41.6436 252.421 41.6436C254.801 41.6436 257.484 40.5141 260.469 38.2549C261.599 38.9811 262.285 39.8686 262.527 40.9175C259.42 43.8221 255.911 45.2745 251.997 45.2745C248.084 45.2745 245.169 43.7817 243.253 40.7965C241.337 37.8111 240.379 33.9786 240.379 29.299C240.379 24.6193 241.549 20.928 243.889 18.2251C246.229 15.5221 249.093 14.1707 252.482 14.1707C254.297 14.1707 255.921 14.4732 257.353 15.0784C258.785 15.6835 259.884 16.4298 260.651 17.3174C262.143 19.1731 262.89 20.9784 262.89 22.7333C262.89 24.4882 262.143 25.3656 260.651 25.3656C260.167 25.3656 259.582 25.3051 258.896 25.184Z" fill="white"/>
<path d="M268.88 39.9694L280.559 23.9334C282.738 21.1094 284.311 19.1326 285.279 18.0031L285.098 17.8216C283.565 18.0233 280.781 18.1241 276.747 18.1241H269.244C269.163 17.8014 269.123 17.3173 269.123 16.6718C269.123 16.0263 269.203 15.3809 269.365 14.7354H289.031C289.515 16.0263 289.757 16.9138 289.757 17.3979C289.757 17.882 289.515 18.4468 289.031 19.0923L277.594 34.7652C275.739 37.2664 274.145 39.3239 272.814 40.9376L272.995 41.1191C275.133 40.9981 277.171 40.9376 279.107 40.9376H282.496C286.006 40.9376 288.386 40.6955 289.636 40.2114C289.878 40.8165 290 41.5024 290 42.2689C290 43.6808 288.93 44.3868 286.792 44.3868H268.88C268.396 43.0555 268.154 42.1579 268.154 41.694C268.154 41.23 268.396 40.6552 268.88 39.9694Z" fill="white"/>
<path d="M3.52909 11.395C3.24586 10.8302 3.10547 10.0939 3.10547 9.18626C3.10547 8.27853 3.24586 7.58264 3.52909 7.09854C4.0527 6.69596 4.91079 6.49341 6.10092 6.49341C7.29014 6.49341 8.12809 6.69596 8.6122 7.09854C8.89375 7.58264 9.03576 8.27853 9.03576 9.18626C9.03576 10.0939 8.89375 10.8302 8.6122 11.395C8.20794 11.7984 7.39186 12.0001 6.1614 12.0001C4.93016 12.0001 4.0527 11.7984 3.52909 11.395Z" fill="white"/>
<path d="M4.51758 14.7354H8.16605C9.37548 14.7354 10.5655 14.8169 11.7355 14.9774C11.8565 15.5825 11.9179 16.1179 11.9179 16.581C11.9179 17.0458 11.8565 17.5399 11.7355 18.0635H10.6462C9.71835 18.0635 9.07288 18.2661 8.7098 18.6687C8.34756 19.0729 8.16605 19.8394 8.16605 20.9682" fill="white"/>
<path d="M8.22978 18.8502V43.8421C8.22978 48.0781 8.04821 50.8213 7.68513 52.0719C6.95898 54.7748 4.84105 56.6903 1.33129 57.8199L0 55.2178C1.61284 54.3302 2.70208 53.3629 3.26771 52.314C3.8325 51.2642 4.11489 49.7321 4.11489 47.715V20.9682C4.11489 19.8394 3.93332 19.0729 3.57024 18.6687C3.20716 18.2661 2.56169 18.0635 1.63382 18.0635H0.544586C0.42356 17.5399 0.363079 17.0458 0.363079 16.581C0.363079 16.1179 0.42356 15.5825 0.544586 14.9774C1.71451 14.8169 2.90463 14.7354 4.11489 14.7354H4.599C5.72774 14.7354 6.6161 15.1085 7.26158 15.8548C7.90621 16.602 8.22978 17.6005 8.22978 18.8502ZM4.11573 40.9698C4.23844 40.9656 4.36953 40.9698 4.5116 40.9698H5.26719C5.36801 40.8295 5.41843 40.7244 5.41843 40.6546C5.41843 40.5849 5.36801 40.4664 5.26719 40.3008C4.88055 40.2898 4.49727 40.2815 4.11573 40.2756V40.9698ZM4.11573 37.1676C4.23844 37.1634 4.36953 37.1676 4.5116 37.1676H5.26719C5.36801 37.0272 5.41843 36.9221 5.41843 36.8524C5.41843 36.7826 5.36801 36.6641 5.26719 36.4985C4.88055 36.4876 4.49727 36.4792 4.11573 36.4734V37.1676ZM4.11573 33.3654C4.23844 33.3612 4.36953 33.3654 4.5116 33.3654H5.26719C5.36801 33.2251 5.41843 33.12 5.41843 33.0502C5.41843 32.9804 5.36801 32.862 5.26719 32.6964C4.88055 32.6855 4.49727 32.6771 4.11573 32.6712V33.3654ZM4.11573 29.5632C4.23844 29.559 4.36953 29.5632 4.5116 29.5632H5.26719C5.36801 29.4229 5.41843 29.3178 5.41843 29.248C5.41843 29.1783 5.36801 29.0598 5.26719 28.8942C4.88055 28.8833 4.49727 28.8749 4.11573 28.869V29.5632ZM4.11573 25.7611C4.23844 25.7569 4.36953 25.7611 4.5116 25.7611H5.26719C5.36801 25.6207 5.41843 25.5157 5.41843 25.4459C5.41843 25.3762 5.36801 25.2577 5.26719 25.092C4.88055 25.0811 4.49727 25.0727 4.11573 25.0669V25.7611ZM4.11573 21.9588C4.23844 21.9546 4.36953 21.9588 4.5116 21.9588H5.26719C5.36801 21.8185 5.41843 21.7134 5.41843 21.6437C5.41843 21.5739 5.36801 21.4554 5.26719 21.2898C4.88055 21.2789 4.49727 21.2705 4.11573 21.2646V21.9588Z" fill="white"/>
</svg>
