<svg width="85" height="22" viewBox="0 0 85 22" fill="none" xmlns="http://www.w3.org/2000/svg">
<path d="M1.37572 4.59464C1.25976 4.33447 1.20542 4.05104 1.21695 3.76644C1.20139 3.49616 1.25609 3.22646 1.37572 2.9836C1.66507 2.80788 2.00266 2.72836 2.34002 2.75648C2.67039 2.72563 3.00164 2.80554 3.28163 2.9836C3.40091 3.22658 3.45559 3.49619 3.44041 3.76644C3.45152 4.05101 3.3972 4.33435 3.28163 4.59464C3.13002 4.74585 2.82361 4.82146 2.3624 4.82146C2.01776 4.85129 1.67246 4.77194 1.37542 4.59464" fill="#2FA69A"/>
<path d="M1.72461 5.84425H3.09301C3.54071 5.84356 3.98794 5.87348 4.43156 5.93379C4.47395 6.13154 4.49694 6.33295 4.5002 6.53516C4.49849 6.72251 4.47546 6.90905 4.43156 7.09118H4.02298C3.89285 7.07692 3.76117 7.0897 3.63622 7.12873C3.51126 7.16777 3.39572 7.23221 3.29685 7.31801C3.13253 7.57374 3.0606 7.87798 3.09301 8.18023" fill="#2FA69A"/>
<path d="M16.0258 11.7269H8.82418C8.9006 14.4026 9.90969 15.7405 11.8514 15.7405C13.0342 15.7084 14.1882 15.3685 15.1996 14.7545C15.5297 15.0334 15.7426 15.4264 15.796 15.8551C14.582 16.7084 13.1301 17.1578 11.6463 17.1395C10.687 17.1808 9.74414 16.8801 8.98586 16.291C8.30868 15.7413 7.80983 15.003 7.55247 14.1696C7.26981 13.2132 7.13453 12.2194 7.15129 11.2223C7.15129 9.49446 7.56031 8.084 8.37836 6.99085C8.75702 6.46437 9.25961 6.03932 9.84165 5.75333C10.4237 5.46733 11.0673 5.32919 11.7154 5.35114C13.1231 5.35114 14.209 5.81365 14.9731 6.73868C15.7626 7.73802 16.1691 8.98653 16.1193 10.2591C16.1186 10.7498 16.0874 11.2401 16.0258 11.7269ZM14.5119 10.1674C14.5508 9.25383 14.3108 8.35002 13.8239 7.57604C13.5982 7.24506 13.2906 6.97816 12.9312 6.80129C12.5718 6.62442 12.1726 6.54362 11.7727 6.56675C11.3577 6.55037 10.9454 6.63965 10.5743 6.82621C10.2033 7.01276 9.88566 7.29049 9.65128 7.63335C9.14674 8.34441 8.87154 9.29619 8.82569 10.4887H14.5119V10.1674Z" fill="#2FA69A"/>
<path d="M28.0212 8.99754V14.7543C27.9926 15.3971 28.0701 16.0401 28.2504 16.6577C28.1177 16.7784 27.9619 16.8712 27.7925 16.9303C27.6231 16.9894 27.4434 17.0138 27.2644 17.0019C26.7293 17.0019 26.4617 16.6578 26.4617 15.9697V9.52602C26.4617 8.56278 26.3394 7.87906 26.0946 7.47486C25.8499 7.07066 25.4065 6.86807 24.7644 6.86706C24.0681 6.88067 23.3846 7.05744 22.769 7.38317C22.1171 7.69891 21.5388 8.14822 21.0717 8.70193V16.8667C20.8227 16.9174 20.5689 16.9404 20.3149 16.9355C20.0533 16.9395 19.792 16.9165 19.5352 16.8667V0.145011L19.673 0.00746549H20.2461C20.3693 -0.0102182 20.4949 0.00363452 20.6112 0.0477388C20.7275 0.091843 20.8308 0.164755 20.9112 0.259636C21.0374 0.515606 21.0928 0.800644 21.0717 1.08522V7.11803C21.6021 6.59641 22.2293 6.18347 22.918 5.90242C23.6024 5.60546 24.3396 5.44952 25.0856 5.44392C26.11 5.44392 26.8554 5.77261 27.3217 6.42998C27.8177 7.19157 28.0624 8.08958 28.0212 8.99754Z" fill="#2FA69A"/>
<path d="M34.3508 15.6495H35.3384C35.4296 15.8755 35.4764 16.1168 35.4762 16.3605C35.4819 16.5138 35.4742 16.6673 35.4533 16.8193C34.9034 16.9085 34.3474 16.9545 33.7904 16.9568C33.3082 16.9736 32.8387 16.8003 32.4831 16.4742C32.3074 16.302 32.1705 16.0943 32.0815 15.8649C31.9925 15.6356 31.9535 15.3899 31.967 15.1443V0.145234L32.1045 0.00768788H32.6776C32.8008 -0.00996707 32.9264 0.00390487 33.0427 0.0480072C33.159 0.0921095 33.2623 0.165 33.3427 0.259858C33.469 0.5158 33.5244 0.800861 33.5032 1.08545V14.6843C33.5026 15.3278 33.7851 15.6495 34.3508 15.6495Z" fill="#2FA69A"/>
<path d="M45.4514 6.56646C46.5216 7.65237 47.0568 9.21195 47.0568 11.2452C47.0568 13.2785 46.5216 14.838 45.4514 15.9239C44.5963 16.7058 43.4795 17.1393 42.3209 17.1393C41.1622 17.1393 40.0454 16.7058 39.1903 15.9239C38.1199 14.838 37.5848 13.2785 37.585 11.2452C37.5852 9.21195 38.1203 7.65237 39.1903 6.56646C40.0454 5.78463 41.1622 5.35107 42.3209 5.35107C43.4795 5.35107 44.5963 5.78463 45.4514 6.56646ZM42.3092 6.56646C41.8274 6.54208 41.3488 6.65802 40.9316 6.90025C40.5143 7.14247 40.1763 7.50056 39.9586 7.93109C39.434 8.95916 39.1776 10.1031 39.2132 11.2567C39.1757 12.4031 39.4323 13.5401 39.9586 14.5593C40.1671 14.909 40.4506 15.208 40.7887 15.4348C41.1267 15.6615 41.5109 15.8105 41.9135 15.8708C42.3161 15.9312 42.7271 15.9014 43.1168 15.7837C43.5065 15.6659 43.8652 15.4632 44.167 15.1901C45.008 14.3493 45.4285 13.0344 45.4285 11.2455C45.4633 10.0956 45.2069 8.95565 44.6832 7.93139C44.462 7.49859 44.1199 7.13925 43.6986 6.89698C43.2772 6.6547 42.7946 6.53989 42.3092 6.56646Z" fill="#2FA69A"/>
<path d="M56.6203 9.50317C56.6203 8.55502 56.5018 7.87462 56.2647 7.46198C56.146 7.25804 55.9722 7.09173 55.7633 6.98218C55.5543 6.87263 55.3187 6.82428 55.0835 6.84271C54.4863 6.85627 53.9039 7.0306 53.3976 7.34735C52.8122 7.69453 52.3016 8.15447 51.8954 8.70051V16.8632C51.3796 16.9548 50.8517 16.9548 50.3359 16.8632V5.7176L50.4735 5.55712H51.0698C51.193 5.53944 51.3186 5.55333 51.435 5.59749C51.5513 5.64165 51.6545 5.71464 51.7349 5.80959C51.8612 6.06553 51.9166 6.3506 51.8954 6.63518V7.09397C52.8587 5.97771 53.9747 5.41957 55.2436 5.41957C55.8127 5.3869 56.3768 5.54202 56.8492 5.8611C57.3215 6.18017 57.6761 6.64553 57.8582 7.18567C59.0815 6.00827 60.32 5.41957 61.5738 5.41957C61.9861 5.39393 62.3983 5.47179 62.7728 5.64606C63.1473 5.82033 63.4723 6.08548 63.7182 6.41739C64.2238 7.163 64.477 8.05106 64.4406 8.95118V14.7535C64.4096 15.398 64.4951 16.0428 64.6931 16.6569C64.4193 16.8914 64.0673 17.0142 63.707 17.001C63.1719 17.001 62.9044 16.657 62.9044 15.9688V9.47905C62.9044 8.53109 62.7859 7.85451 62.549 7.44931C62.4283 7.24803 62.2537 7.08448 62.045 6.97709C61.8363 6.8697 61.6018 6.82273 61.3678 6.8415C60.7737 6.85403 60.193 7.02031 59.6823 7.32413C59.0819 7.66932 58.562 8.13843 58.1572 8.70021V16.8632C57.9005 16.9145 57.6391 16.9375 57.3774 16.932C57.1233 16.9385 56.8693 16.9155 56.6206 16.8632L56.6203 9.50317Z" fill="#2FA69A"/>
<path d="M76.5961 16.2217C76.5329 16.3974 76.4355 16.5588 76.3095 16.6966C76.1836 16.8343 76.0315 16.9458 75.8622 17.0244C75.5122 16.8947 75.2038 16.6727 74.9697 16.3821C74.7355 16.0914 74.5843 15.7428 74.532 15.3732C73.3548 16.5506 72.1393 17.1392 70.8855 17.139C70.4315 17.1639 69.9778 17.0873 69.5572 16.9148C69.1366 16.7422 68.7598 16.478 68.4542 16.1415C67.8828 15.5019 67.5719 14.6714 67.5828 13.8138C67.5828 12.5905 67.9649 11.6731 68.729 11.0616C69.4932 10.4501 70.5406 10.1442 71.8712 10.144C72.7402 10.141 73.6077 10.2179 74.4626 10.3735V9.15794C74.4626 7.55261 73.7516 6.74984 72.3297 6.74964C71.2438 6.74964 69.9901 7.07068 68.5686 7.71277C68.3945 7.56226 68.2572 7.37397 68.1671 7.16228C68.0599 6.94834 68.0012 6.71344 67.9951 6.47424C69.3861 5.80624 70.9022 5.439 72.4446 5.39648C74.784 5.39648 75.9536 6.66548 75.9536 9.20348V13.9281C75.954 15.0443 76.1682 15.8089 76.5961 16.2217ZM69.1884 13.6071C69.1564 14.1804 69.3314 14.746 69.6816 15.201C69.8495 15.396 70.0597 15.55 70.2962 15.6514C70.5327 15.7528 70.7893 15.7988 71.0462 15.7859C71.6758 15.7725 72.2915 15.5988 72.8353 15.2812C73.4788 14.9167 74.0348 14.4157 74.4641 13.8134V11.543C73.6172 11.4213 72.7627 11.3601 71.9071 11.3596C71.1889 11.3174 70.4799 11.5375 69.9118 11.9789C69.6759 12.1779 69.4883 12.4278 69.363 12.7099C69.2377 12.9919 69.178 13.2987 69.1884 13.6071Z" fill="#2FA69A"/>
<path d="M84.8333 5.60317C84.8763 5.80686 84.8993 6.01427 84.9021 6.22244C84.9001 6.42308 84.877 6.62295 84.8333 6.81878L81.9206 6.79586V14.7082C81.9206 15.335 82.2188 15.6484 82.815 15.6484H84.5808C84.672 15.8743 84.7188 16.1157 84.7187 16.3594C84.7244 16.5127 84.7168 16.6662 84.6957 16.8182C83.9846 16.9094 83.2683 16.9553 82.5514 16.9557C81.9737 16.9968 81.4003 16.8301 80.9346 16.4857C80.7477 16.318 80.6012 16.1102 80.5059 15.8779C80.4105 15.6455 80.3689 15.3947 80.3841 15.144V6.79586L78.8017 6.81878C78.7566 6.62707 78.7335 6.43084 78.7329 6.2339C78.7351 6.02191 78.7581 5.81065 78.8017 5.60317L80.3841 5.6261V3.14993C80.3619 2.864 80.4215 2.57765 80.556 2.32434C80.6395 2.23007 80.7448 2.15777 80.8628 2.11379C80.9808 2.06982 81.1078 2.05552 81.2326 2.07217H81.7828L81.9206 2.20972V5.64992L84.8333 5.60317Z" fill="#2FA69A"/>
<path d="M3.08598 7.38734V16.7587C3.08598 18.3471 3.01794 19.3757 2.88184 19.8447C2.60946 20.8582 1.81518 21.5767 0.49901 22.0001C0.247986 21.7259 0.0755917 21.389 0 21.0251C0.50324 20.7852 0.928154 20.4076 1.22544 19.936C1.467 19.3945 1.57587 18.8033 1.54299 18.2113V8.18151C1.57553 7.87922 1.50348 7.57491 1.33885 7.31929C1.23998 7.23349 1.12444 7.16905 0.999482 7.13002C0.874526 7.09099 0.742851 7.0782 0.61272 7.09247H0.204141C0.160523 6.9103 0.137695 6.72377 0.136094 6.53645C0.139228 6.33426 0.162018 6.13286 0.204141 5.93508C0.647862 5.87476 1.09519 5.84484 1.54299 5.84554H1.72445C1.91166 5.83623 2.09857 5.86911 2.27136 5.94175C2.44416 6.01438 2.59843 6.1249 2.72277 6.26516C2.97713 6.58214 3.10637 6.98143 3.08598 7.38734ZM1.54329 15.6822C1.58925 15.6807 1.6385 15.6822 1.69252 15.6822H1.97575C2.00526 15.6484 2.02489 15.6071 2.03245 15.5628C2.02396 15.5148 2.00456 15.4693 1.97575 15.43C1.8307 15.426 1.68675 15.4228 1.54389 15.4204L1.54329 15.6822ZM1.54329 14.2562C1.58925 14.2562 1.6385 14.2562 1.69252 14.2562H1.97575C2.00529 14.2224 2.02491 14.1811 2.03245 14.1368C2.0239 14.0889 2.0045 14.0436 1.97575 14.0043C1.8307 14.0003 1.68675 13.9971 1.54389 13.9948L1.54329 14.2562ZM1.54329 12.8305C1.58925 12.8305 1.6385 12.8305 1.69252 12.8305H1.97575C2.0053 12.7967 2.02493 12.7554 2.03245 12.7111C2.02391 12.6632 2.00451 12.6179 1.97575 12.5786C1.8307 12.5744 1.68675 12.5712 1.54389 12.569L1.54329 12.8305ZM1.54329 11.4048C1.58925 11.4048 1.6385 11.4048 1.69252 11.4048H1.97575C2.0053 11.371 2.02493 11.3297 2.03245 11.2854C2.02391 11.2375 2.00451 11.1922 1.97575 11.1529C1.8307 11.1487 1.68675 11.1455 1.54389 11.1433L1.54329 11.4048ZM1.54329 9.97909C1.58925 9.97909 1.6385 9.97909 1.69252 9.97909H1.97575C2.0053 9.94529 2.02493 9.90397 2.03245 9.85971C2.02391 9.81179 2.00451 9.76646 1.97575 9.7272C1.8307 9.72302 1.68675 9.71983 1.54389 9.71764L1.54329 9.97909ZM1.54329 8.55338C1.58925 8.55338 1.6385 8.55338 1.69252 8.55338H1.97575C2.00528 8.51957 2.0249 8.47826 2.03245 8.434C2.02391 8.38609 2.00451 8.34076 1.97575 8.30149C1.8307 8.29731 1.68675 8.29414 1.54389 8.29195L1.54329 8.55338Z" fill="#2FA69A"/>
</svg>
